<svg width="33" height="31" viewBox="0 0 33 31" fill="none" xmlns="http://www.w3.org/2000/svg">
<path d="M8.90024 2.51625C10.9192 0.900253 13.4943 0.00775972 16.1602 0C21.5941 0 26.1048 3.75 26.5957 8.58562C29.8116 9.0075 32.3204 11.5069 32.3204 14.5744C32.3204 17.9419 29.2944 20.625 25.6281 20.625H20.2003C19.9324 20.625 19.6755 20.5262 19.4861 20.3504C19.2967 20.1746 19.1903 19.9361 19.1903 19.6875C19.1903 19.4389 19.2967 19.2004 19.4861 19.0246C19.6755 18.8488 19.9324 18.75 20.2003 18.75H25.6301C28.238 18.75 30.3004 16.8525 30.3004 14.5744C30.3004 12.2944 28.24 10.3969 25.6281 10.3969H24.6181V9.45938C24.6201 5.29688 20.8628 1.875 16.1602 1.875C13.9783 1.88309 11.8714 2.61456 10.2193 3.9375C8.69016 5.16 7.89023 6.63375 7.89023 7.79063V8.63063L6.99132 8.7225C4.16934 9.00937 2.02003 11.16 2.02003 13.7212C2.02003 16.4719 4.50466 18.75 7.63772 18.75H12.1202C12.388 18.75 12.6449 18.8488 12.8344 19.0246C13.0238 19.2004 13.1302 19.4389 13.1302 19.6875C13.1302 19.9361 13.0238 20.1746 12.8344 20.3504C12.6449 20.5262 12.388 20.625 12.1202 20.625H7.63772C3.45021 20.625 0 17.5612 0 13.7212C0 10.4156 2.55735 7.67812 5.94292 6.98437C6.23179 5.36625 7.3529 3.75375 8.90024 2.51625V2.51625Z" fill="#97A3B6"/>
<path d="M15.4451 29.7262C15.539 29.8136 15.6504 29.8828 15.7731 29.9301C15.8958 29.9773 16.0274 30.0017 16.1602 30.0017C16.2931 30.0017 16.4246 29.9773 16.5473 29.9301C16.6701 29.8828 16.7815 29.8136 16.8753 29.7262L22.9354 24.1012C23.1251 23.9252 23.2316 23.6865 23.2316 23.4375C23.2316 23.1885 23.1251 22.9498 22.9354 22.7737C22.7458 22.5977 22.4885 22.4988 22.2203 22.4988C21.9521 22.4988 21.6949 22.5977 21.5052 22.7737L17.1703 26.7994V10.3125C17.1703 10.0639 17.0638 9.8254 16.8744 9.64959C16.685 9.47377 16.4281 9.375 16.1602 9.375C15.8924 9.375 15.6355 9.47377 15.4461 9.64959C15.2566 9.8254 15.1502 10.0639 15.1502 10.3125V26.7994L10.8152 22.7737C10.6256 22.5977 10.3684 22.4988 10.1002 22.4988C9.83195 22.4988 9.57472 22.5977 9.38507 22.7737C9.19541 22.9498 9.08887 23.1885 9.08887 23.4375C9.08887 23.6865 9.19541 23.9252 9.38507 24.1012L15.4451 29.7262Z" fill="#97A3B6"/>
</svg>
