<svg width="50" height="46" viewBox="0 0 50 46" fill="none" xmlns="http://www.w3.org/2000/svg">
<path d="M29.6 38.8C38.2733 38.8 42.6111 38.8 45.3044 36.1044C48 33.4111 48 29.0733 48 20.4C48 11.7267 48 7.3889 45.3044 4.6956C42.6111 2 38.2733 2 29.6 2H20.4C11.7267 2 7.3889 2 4.6956 4.6956C2 7.3889 2 11.7267 2 20.4C2 29.0733 2 33.4111 4.6956 36.1044C6.1975 37.6086 8.21 38.2733 11.2 38.5654" stroke="#08BDD4" stroke-width="3" stroke-linecap="round" stroke-linejoin="round"/>
<path d="M29.6003 38.8C26.7575 38.8 23.6249 39.95 20.766 41.4335C16.1706 43.8186 13.8729 45.0123 12.7413 44.251C11.6097 43.492 11.8236 41.1345 12.2537 36.4218L12.3503 35.35" stroke="#08BDD4" stroke-width="3" stroke-linecap="round"/>
</svg>
