<svg width="12" height="10" viewBox="0 0 12 10" fill="none" xmlns="http://www.w3.org/2000/svg">
<path d="M8.26758 3.10028C8.26758 3.00423 8.30573 2.91212 8.37364 2.84421C8.44156 2.7763 8.53367 2.73814 8.62971 2.73814H10.0782C10.1743 2.73814 10.2664 2.7763 10.3343 2.84421C10.4022 2.91212 10.4404 3.00423 10.4404 3.10028V3.82454C10.4404 3.92058 10.4022 4.01269 10.3343 4.08061C10.2664 4.14852 10.1743 4.18667 10.0782 4.18667H8.62971C8.53367 4.18667 8.44156 4.14852 8.37364 4.08061C8.30573 4.01269 8.26758 3.92058 8.26758 3.82454V3.10028Z" fill="black" fill-opacity="0.4"/>
<path d="M1.74931 0.565353C1.36514 0.565353 0.996698 0.717966 0.725046 0.989618C0.453394 1.26127 0.300781 1.62971 0.300781 2.01388L0.300781 7.808C0.300781 8.19217 0.453394 8.56061 0.725046 8.83226C0.996698 9.10392 1.36514 9.25653 1.74931 9.25653H10.4405C10.8247 9.25653 11.1931 9.10392 11.4648 8.83226C11.7364 8.56061 11.889 8.19217 11.889 7.808V2.01388C11.889 1.62971 11.7364 1.26127 11.4648 0.989618C11.1931 0.717966 10.8247 0.565353 10.4405 0.565353H1.74931ZM11.1648 2.01388V5.63521H1.02505V2.01388C1.02505 1.8218 1.10135 1.63758 1.23718 1.50175C1.373 1.36592 1.55722 1.28962 1.74931 1.28962H10.4405C10.6326 1.28962 10.8168 1.36592 10.9526 1.50175C11.0884 1.63758 11.1648 1.8218 11.1648 2.01388ZM10.4405 8.53226H1.74931C1.55722 8.53226 1.373 8.45596 1.23718 8.32013C1.10135 8.18431 1.02505 8.00009 1.02505 7.808V7.08374H11.1648V7.808C11.1648 8.00009 11.0884 8.18431 10.9526 8.32013C10.8168 8.45596 10.6326 8.53226 10.4405 8.53226Z" fill="black" fill-opacity="0.4"/>
</svg>
