<svg width="19" height="16" viewBox="0 0 19 16" fill="none" xmlns="http://www.w3.org/2000/svg">
<path d="M16.164 2.02271C14.9861 1.47969 13.7234 1.07833 12.403 0.8501C12.3913 0.847793 12.3791 0.84928 12.3682 0.854356C12.3573 0.859432 12.3482 0.867845 12.3422 0.878432C12.1805 1.16883 12.0004 1.54737 11.8741 1.84642C10.4737 1.63255 9.05002 1.63255 7.64964 1.84642C7.509 1.51499 7.35041 1.19183 7.17461 0.878432C7.16865 0.867715 7.15963 0.859111 7.14876 0.853768C7.1379 0.848424 7.12569 0.846596 7.11378 0.848526C5.79417 1.07675 4.53152 1.47811 3.3528 2.02192C3.34266 2.02627 3.33406 2.03368 3.32816 2.04317C0.932214 5.64363 0.275485 9.15516 0.598075 12.6226C0.598973 12.6311 0.601552 12.6393 0.605655 12.6468C0.609758 12.6542 0.615299 12.6607 0.621942 12.6659C2.02039 13.7066 3.58018 14.4994 5.23598 15.0111C5.24753 15.0147 5.25987 15.0147 5.27141 15.0111C5.28295 15.0074 5.29314 15.0003 5.30066 14.9907C5.65696 14.5036 5.9727 13.9868 6.24456 13.4458C6.24833 13.4384 6.25051 13.4303 6.25094 13.4219C6.25137 13.4136 6.25004 13.4053 6.24704 13.3975C6.24405 13.3898 6.23946 13.3827 6.23359 13.377C6.22771 13.3712 6.22069 13.3667 6.21299 13.364C5.71564 13.1725 5.23374 12.9415 4.77173 12.673C4.76343 12.6681 4.75643 12.6613 4.75137 12.653C4.74631 12.6447 4.74334 12.6352 4.74273 12.6255C4.74212 12.6157 4.74389 12.606 4.74787 12.5971C4.75186 12.5882 4.75794 12.5805 4.76557 12.5746C4.86258 12.5014 4.95959 12.4251 5.05198 12.3487C5.06029 12.3419 5.07031 12.3375 5.08091 12.3361C5.09152 12.3347 5.10229 12.3364 5.11203 12.3409C8.13545 13.7291 11.4099 13.7291 14.3979 12.3409C14.4076 12.3361 14.4185 12.3342 14.4293 12.3355C14.44 12.3368 14.4502 12.3411 14.4587 12.348C14.5511 12.4251 14.6473 12.5014 14.7451 12.5746C14.7528 12.5804 14.759 12.588 14.7631 12.5968C14.7672 12.6056 14.7691 12.6153 14.7687 12.6251C14.7682 12.6348 14.7654 12.6443 14.7605 12.6526C14.7555 12.661 14.7487 12.668 14.7405 12.673C14.2801 12.9437 13.8012 13.1727 13.2984 13.3632C13.2907 13.366 13.2837 13.3705 13.2778 13.3764C13.2719 13.3823 13.2673 13.3894 13.2643 13.3972C13.2614 13.405 13.26 13.4134 13.2605 13.4218C13.2609 13.4302 13.2631 13.4383 13.2669 13.4458C13.544 13.9865 13.8612 14.5011 14.21 14.9899C14.2173 14.9999 14.2274 15.0074 14.2389 15.0113C14.2505 15.0153 14.263 15.0155 14.2747 15.0119C15.9333 14.5017 17.4956 13.7085 18.8956 12.6659C18.9025 12.661 18.9082 12.6547 18.9125 12.6474C18.9167 12.64 18.9194 12.6319 18.9203 12.6234C19.3052 8.6145 18.2751 5.1313 16.1879 2.04474C16.1828 2.03471 16.1743 2.02689 16.164 2.02271ZM6.69649 10.5111C5.78647 10.5111 5.03581 9.66984 5.03581 8.63811C5.03581 7.60558 5.77184 6.76508 6.69649 6.76508C7.62808 6.76508 8.37181 7.61266 8.35718 8.63811C8.35718 9.67063 7.62115 10.5111 6.69649 10.5111V10.5111ZM12.8365 10.5111C11.9257 10.5111 11.1758 9.66984 11.1758 8.63811C11.1758 7.60558 11.9111 6.76508 12.8365 6.76508C13.7681 6.76508 14.5118 7.61266 14.4972 8.63811C14.4972 9.67063 13.7688 10.5111 12.8365 10.5111V10.5111Z" fill="white" fill-opacity="0.4"/>
</svg>
