<svg width="19" height="16" viewBox="0 0 19 16" fill="none" xmlns="http://www.w3.org/2000/svg">
<path d="M16.1643 2.02259C14.9863 1.47957 13.7237 1.0782 12.4033 0.849978C12.3915 0.84767 12.3793 0.849158 12.3684 0.854233C12.3575 0.859309 12.3485 0.867723 12.3425 0.878309C12.1808 1.16871 12.0006 1.54725 11.8744 1.8463C10.474 1.63243 9.05027 1.63243 7.64988 1.8463C7.50925 1.51487 7.35066 1.19171 7.17485 0.878309C7.16889 0.867593 7.15988 0.858989 7.14901 0.853645C7.13814 0.848302 7.12594 0.846474 7.11403 0.848404C5.79441 1.07663 4.53176 1.47799 3.35304 2.0218C3.3429 2.02615 3.3343 2.03356 3.3284 2.04305C0.932458 5.64351 0.275729 9.15503 0.598319 12.6225C0.599217 12.631 0.601796 12.6392 0.605899 12.6466C0.610002 12.6541 0.615544 12.6606 0.622186 12.6658C2.02064 13.7065 3.58042 14.4993 5.23623 15.011C5.24777 15.0146 5.26012 15.0146 5.27165 15.011C5.28319 15.0073 5.29338 15.0002 5.3009 14.9905C5.65721 14.5034 5.97295 13.9867 6.2448 13.4457C6.24858 13.4383 6.25075 13.4301 6.25118 13.4218C6.25161 13.4135 6.25028 13.4052 6.24729 13.3974C6.2443 13.3896 6.23971 13.3826 6.23383 13.3768C6.22796 13.371 6.22093 13.3666 6.21324 13.3638C5.71588 13.1724 5.23398 12.9413 4.77198 12.6729C4.76367 12.668 4.75668 12.6611 4.75162 12.6529C4.74656 12.6446 4.74359 12.6351 4.74298 12.6254C4.74236 12.6156 4.74413 12.6059 4.74812 12.597C4.75211 12.5881 4.75819 12.5804 4.76582 12.5745C4.86282 12.5013 4.95983 12.425 5.05222 12.3486C5.06054 12.3418 5.07055 12.3374 5.08116 12.336C5.09176 12.3346 5.10253 12.3363 5.11227 12.3408C8.13569 13.729 11.4101 13.729 14.3981 12.3408C14.4079 12.336 14.4188 12.3341 14.4295 12.3354C14.4403 12.3366 14.4505 12.3409 14.4589 12.3478C14.5513 12.425 14.6476 12.5013 14.7453 12.5745C14.753 12.5802 14.7592 12.5879 14.7633 12.5967C14.7674 12.6055 14.7694 12.6152 14.7689 12.6249C14.7684 12.6347 14.7656 12.6442 14.7607 12.6525C14.7558 12.6609 14.7489 12.6679 14.7407 12.6729C14.2803 12.9436 13.8014 13.1726 13.2987 13.363C13.291 13.3659 13.2839 13.3704 13.278 13.3763C13.2722 13.3822 13.2676 13.3892 13.2646 13.3971C13.2616 13.4049 13.2603 13.4133 13.2607 13.4216C13.2612 13.43 13.2633 13.4382 13.2671 13.4457C13.5443 13.9863 13.8615 14.501 14.2102 14.9897C14.2175 14.9998 14.2276 15.0073 14.2392 15.0112C14.2507 15.0152 14.2632 15.0154 14.2749 15.0118C15.9336 14.5015 17.4959 13.7084 18.8959 12.6658C18.9027 12.6609 18.9084 12.6546 18.9127 12.6472C18.9169 12.6399 18.9196 12.6317 18.9205 12.6233C19.3055 8.61438 18.2753 5.13118 16.1881 2.04462C16.183 2.03459 16.1745 2.02677 16.1643 2.02259ZM6.69674 10.511C5.78671 10.511 5.03605 9.66972 5.03605 8.63798C5.03605 7.60546 5.77208 6.76496 6.69674 6.76496C7.62832 6.76496 8.37205 7.61254 8.35742 8.63798C8.35742 9.67051 7.62139 10.511 6.69674 10.511V10.511ZM12.8367 10.511C11.9259 10.511 11.176 9.66972 11.176 8.63798C11.176 7.60546 11.9113 6.76496 12.8367 6.76496C13.7683 6.76496 14.512 7.61254 14.4974 8.63798C14.4974 9.67051 13.7691 10.511 12.8367 10.511V10.511Z" fill="black" fill-opacity="0.4"/>
</svg>
