<svg width="38" height="29" viewBox="0 0 38 29" fill="none" xmlns="http://www.w3.org/2000/svg">
<path d="M32.1684 2.40515C29.746 1.29356 27.1494 0.471944 24.4341 0.00475273C24.4099 2.913e-05 24.3848 0.00307319 24.3624 0.013464C24.34 0.0238548 24.3213 0.0410782 24.309 0.0627489C23.9765 0.65721 23.606 1.4321 23.3463 2.04429C20.4665 1.60647 17.5387 1.60647 14.6588 2.04429C14.3696 1.36583 14.0435 0.70429 13.6819 0.0627489C13.6697 0.0408114 13.6512 0.0231984 13.6288 0.0122602C13.6065 0.0013221 13.5814 -0.00242104 13.5569 0.00153057C10.8431 0.468722 8.24652 1.29034 5.82251 2.40354C5.80165 2.41244 5.78398 2.42762 5.77184 2.44704C0.844653 9.81739 -0.505891 17.0057 0.157506 24.1038C0.159352 24.1212 0.164656 24.138 0.173094 24.1532C0.181532 24.1685 0.192928 24.1818 0.206588 24.1924C3.08246 26.3228 6.29011 27.9457 9.69523 28.9932C9.71897 29.0006 9.74436 29.0006 9.76808 28.9931C9.79181 28.9857 9.81277 28.9711 9.82823 28.9513C10.561 27.9542 11.2103 26.8964 11.7693 25.7889C11.7771 25.7738 11.7816 25.7571 11.7825 25.74C11.7833 25.723 11.7806 25.7059 11.7744 25.6901C11.7683 25.6742 11.7589 25.6598 11.7468 25.648C11.7347 25.6361 11.7202 25.627 11.7044 25.6213C10.6816 25.2294 9.69061 24.7565 8.74051 24.2069C8.72344 24.197 8.70905 24.1829 8.69864 24.1659C8.68823 24.149 8.68213 24.1296 8.68087 24.1097C8.67961 24.0897 8.68325 24.0697 8.69145 24.0516C8.69965 24.0334 8.71215 24.0176 8.72784 24.0055C8.92734 23.8557 9.12683 23.6994 9.31682 23.5432C9.33393 23.5291 9.35453 23.5202 9.37633 23.5173C9.39814 23.5145 9.42029 23.5178 9.44032 23.527C15.6579 26.3689 22.3916 26.3689 28.5364 23.527C28.5564 23.5173 28.5788 23.5135 28.6009 23.516C28.6231 23.5186 28.644 23.5274 28.6614 23.5415C28.8514 23.6994 29.0493 23.8557 29.2504 24.0055C29.2663 24.0173 29.279 24.0329 29.2874 24.0509C29.2959 24.069 29.2998 24.0888 29.2989 24.1088C29.2979 24.1287 29.2922 24.1481 29.282 24.1653C29.2719 24.1824 29.2578 24.1967 29.2409 24.2069C28.2941 24.7611 27.3093 25.2299 26.2754 25.6197C26.2595 25.6256 26.2451 25.6348 26.233 25.6469C26.2209 25.6589 26.2115 25.6734 26.2053 25.6894C26.1992 25.7054 26.1965 25.7225 26.1974 25.7397C26.1983 25.7569 26.2027 25.7736 26.2105 25.7889C26.7805 26.8957 27.4328 27.9493 28.15 28.9497C28.1649 28.9702 28.1857 28.9856 28.2095 28.9936C28.2333 29.0017 28.259 29.0021 28.283 28.9948C31.694 27.9503 34.9069 26.3266 37.7859 24.1924C37.8 24.1824 37.8118 24.1695 37.8205 24.1545C37.8292 24.1395 37.8347 24.1227 37.8366 24.1054C38.6282 15.8989 36.5098 8.76862 32.2175 2.45026C32.207 2.42973 32.1896 2.41372 32.1684 2.40515ZM12.6987 19.7815C10.8273 19.7815 9.28358 18.0593 9.28358 15.9473C9.28358 13.8336 10.7972 12.1131 12.6987 12.1131C14.6145 12.1131 16.144 13.8481 16.1139 15.9473C16.1139 18.0609 14.6003 19.7815 12.6987 19.7815V19.7815ZM25.3254 19.7815C23.4524 19.7815 21.9103 18.0593 21.9103 15.9473C21.9103 13.8336 23.4223 12.1131 25.3254 12.1131C27.2412 12.1131 28.7707 13.8481 28.7406 15.9473C28.7406 18.0609 27.2428 19.7815 25.3254 19.7815V19.7815Z" fill="#97A3B6"/>
</svg>
