<svg width="29" height="34" viewBox="0 0 29 34" fill="none" xmlns="http://www.w3.org/2000/svg">
<path d="M17.4556 16.1735C17.5105 16.1735 17.5642 16.1573 17.61 16.127C17.6558 16.0966 17.6916 16.0534 17.7129 16.0027C17.7342 15.9521 17.74 15.8963 17.7297 15.8423C17.7194 15.7884 17.6934 15.7386 17.655 15.6994L12.1895 10.1419C12.1506 10.1024 12.1009 10.0754 12.0467 10.0643C11.9925 10.0532 11.9361 10.0585 11.8849 10.0795C11.8337 10.1006 11.7899 10.1363 11.7591 10.1823C11.7283 10.2283 11.7119 10.2824 11.7119 10.3378V15.3369C11.7119 15.5588 11.8001 15.7716 11.9569 15.9284C12.1138 16.0853 12.3266 16.1735 12.5485 16.1735H17.4556Z" fill="#97A3B6"/>
<path d="M10.3873 17.498C10.1009 17.2155 9.87342 16.8791 9.71786 16.5082C9.56231 16.1372 9.4818 15.7391 9.481 15.3369V8.9233H4.46165C3.27942 8.9268 2.14661 9.39798 1.31065 10.2339C0.474681 11.0699 0.0034942 12.2027 0 13.3849V29.0007C0 30.184 0.470065 31.3188 1.30679 32.1556C2.14351 32.9923 3.27834 33.4624 4.46165 33.4624H14.5004C15.6837 33.4624 16.8185 32.9923 17.6552 32.1556C18.4919 31.3188 18.962 30.184 18.962 29.0007V18.4043H12.5484C12.1461 18.4037 11.748 18.3233 11.377 18.1678C11.006 18.0122 10.6696 17.7846 10.3873 17.498V17.498ZM22.5871 7.25018H27.4942C27.5491 7.25023 27.6029 7.23405 27.6486 7.20367C27.6944 7.1733 27.7302 7.13008 27.7515 7.07944C27.7728 7.0288 27.7786 6.973 27.7683 6.91904C27.758 6.86508 27.732 6.81536 27.6936 6.77613L22.2281 1.2186C22.1892 1.17916 22.1395 1.15217 22.0853 1.14107C22.0311 1.12997 21.9748 1.13526 21.9235 1.15627C21.8723 1.17728 21.8285 1.21305 21.7977 1.25904C21.7669 1.30502 21.7505 1.35914 21.7505 1.41449V6.41363C21.7505 6.63549 21.8387 6.84828 21.9955 7.00516C22.1524 7.16205 22.3652 7.25018 22.5871 7.25018Z" fill="#97A3B6"/>
<path d="M22.5868 9.481C21.7752 9.4748 20.9986 9.14964 20.4247 8.57573C19.8508 8.00182 19.5256 7.22522 19.5194 6.41362V0H11.9904C10.8815 0.00129152 9.8183 0.442392 9.03416 1.22654C8.25001 2.01068 7.80891 3.07384 7.80762 4.18279V6.69247H10.7439C11.1187 6.69397 11.4895 6.76951 11.835 6.91474C12.1805 7.05998 12.494 7.27206 12.7573 7.53879L20.3671 15.277C20.898 15.8156 21.1945 16.5423 21.1919 17.2986V26.7699H24.8901C27.1565 26.7699 28.9997 24.8932 28.9997 22.5871V9.481H22.5868Z" fill="#97A3B6"/>
</svg>
