<svg width="39" height="39" viewBox="0 0 39 39" fill="none" xmlns="http://www.w3.org/2000/svg">
<rect width="39" height="39" rx="7" fill="#34CBD0" fill-opacity="0.3"/>
<path d="M9 11C8.44772 11 8 11.4477 8 12C8 12.5523 8.44772 13 9 13V11ZM31.7071 12.7071C32.0976 12.3166 32.0976 11.6834 31.7071 11.2929L25.3431 4.92893C24.9526 4.53841 24.3195 4.53841 23.9289 4.92893C23.5384 5.31946 23.5384 5.95262 23.9289 6.34315L29.5858 12L23.9289 17.6569C23.5384 18.0474 23.5384 18.6805 23.9289 19.0711C24.3195 19.4616 24.9526 19.4616 25.3431 19.0711L31.7071 12.7071ZM9 13H31V11H9V13Z" fill="#34CBD0"/>
<path d="M31 28C31.5523 28 32 27.5523 32 27C32 26.4477 31.5523 26 31 26V28ZM8.29289 26.2929C7.90237 26.6834 7.90237 27.3166 8.29289 27.7071L14.6569 34.0711C15.0474 34.4616 15.6805 34.4616 16.0711 34.0711C16.4616 33.6805 16.4616 33.0474 16.0711 32.6569L10.4142 27L16.0711 21.3431C16.4616 20.9526 16.4616 20.3195 16.0711 19.9289C15.6805 19.5384 15.0474 19.5384 14.6569 19.9289L8.29289 26.2929ZM31 26L9 26V28L31 28V26Z" fill="#34CBD0"/>
</svg>
