<svg width="304" height="194" viewBox="0 0 304 194" fill="none" xmlns="http://www.w3.org/2000/svg">
<path d="M0.94043 6.90459C0.94043 3.58883 3.95475 0.900879 7.6731 0.900879H42.4586C46.1769 0.900879 49.1913 3.58883 49.1913 6.90459C49.1913 10.2204 46.1769 12.9083 42.4586 12.9083H7.6731C3.95475 12.9083 0.94043 10.2204 0.94043 6.90459Z" fill="url(#paint0_linear_217_70)"/>
<path d="M132.228 106.966C132.228 103.651 135.242 100.963 138.96 100.963H173.746C177.464 100.963 180.478 103.651 180.478 106.966C180.478 110.282 177.464 112.97 173.746 112.97H138.96C135.242 112.97 132.228 110.282 132.228 106.966Z" fill="url(#paint1_linear_217_70)"/>
<path d="M149.059 126.979C149.059 123.663 152.074 120.975 155.792 120.975H297.178C300.896 120.975 303.911 123.663 303.911 126.979C303.911 130.295 300.896 132.983 297.178 132.983H155.792C152.074 132.983 149.059 130.295 149.059 126.979Z" fill="url(#paint2_linear_217_70)"/>
<path d="M115.396 126.979C115.396 123.663 118.41 120.975 122.129 120.975H133.35C137.068 120.975 140.082 123.663 140.082 126.979C140.082 130.295 137.068 132.983 133.35 132.983H122.129C118.41 132.983 115.396 130.295 115.396 126.979Z" fill="url(#paint3_linear_217_70)"/>
<path d="M79.4883 126.979C79.4883 123.663 82.5026 120.975 86.221 120.975H101.931C105.649 120.975 108.663 123.663 108.663 126.979C108.663 130.295 105.649 132.983 101.931 132.983H86.221C82.5026 132.983 79.4883 130.295 79.4883 126.979Z" fill="url(#paint4_linear_217_70)"/>
<path d="M213.02 46.9293C213.02 43.6136 216.034 40.9256 219.752 40.9256H254.538C258.256 40.9256 261.27 43.6136 261.27 46.9293C261.27 50.2451 258.256 52.9331 254.538 52.9331H219.752C216.034 52.9331 213.02 50.2451 213.02 46.9293Z" fill="url(#paint5_linear_217_70)"/>
<path d="M154.67 46.9293C154.67 43.6136 157.684 40.9256 161.402 40.9256H196.188C199.906 40.9256 202.921 43.6136 202.921 46.9293C202.921 50.2451 199.906 52.9331 196.188 52.9331H161.402C157.684 52.9331 154.67 50.2451 154.67 46.9293Z" fill="url(#paint6_linear_217_70)"/>
<path d="M179.356 86.9541C179.356 83.6383 182.371 80.9504 186.089 80.9504H268.003C271.721 80.9504 274.736 83.6383 274.736 86.9541C274.736 90.2699 271.721 92.9578 268.003 92.9578H186.089C182.371 92.9578 179.356 90.2699 179.356 86.9541Z" fill="url(#paint7_linear_217_70)"/>
<path d="M119.884 86.9541C119.884 83.6383 122.899 80.9504 126.617 80.9504H161.402C165.121 80.9504 168.135 83.6383 168.135 86.9541C168.135 90.2699 165.121 92.9578 161.402 92.9578H126.617C122.899 92.9578 119.884 90.2699 119.884 86.9541Z" fill="url(#paint8_linear_217_70)"/>
<path d="M73.8777 106.966C73.8777 103.651 76.892 100.963 80.6104 100.963H115.396C119.114 100.963 122.129 103.651 122.129 106.966C122.129 110.282 119.114 112.97 115.396 112.97H80.6104C76.892 112.97 73.8777 110.282 73.8777 106.966Z" fill="url(#paint9_linear_217_70)"/>
<path d="M90.7094 46.9293C90.7094 43.6136 93.7237 40.9256 97.4421 40.9256H137.838C141.556 40.9256 144.571 43.6136 144.571 46.9293C144.571 50.2451 141.556 52.9331 137.838 52.9331H97.4421C93.7237 52.9331 90.7094 50.2451 90.7094 46.9293Z" fill="url(#paint10_linear_217_70)"/>
<path d="M195.066 146.991C195.066 143.675 198.08 140.988 201.799 140.988H263.515C267.233 140.988 270.247 143.675 270.247 146.991C270.247 150.307 267.233 152.995 263.515 152.995H201.799C198.08 152.995 195.066 150.307 195.066 146.991Z" fill="url(#paint11_linear_217_70)"/>
<path d="M108.663 146.991C108.663 143.675 111.678 140.988 115.396 140.988H181.6C185.319 140.988 188.333 143.675 188.333 146.991C188.333 150.307 185.319 152.995 181.6 152.995H115.396C111.678 152.995 108.663 150.307 108.663 146.991Z" fill="url(#paint12_linear_217_70)"/>
<path d="M228.729 187.016C228.729 183.7 231.744 181.012 235.462 181.012H257.904C261.622 181.012 264.637 183.7 264.637 187.016C264.637 190.332 261.622 193.02 257.904 193.02H235.462C231.744 193.02 228.729 190.332 228.729 187.016Z" fill="url(#paint13_linear_217_70)"/>
<path d="M188.333 187.016C188.333 183.7 191.347 181.012 195.066 181.012H216.386C220.104 181.012 223.119 183.7 223.119 187.016C223.119 190.332 220.104 193.02 216.386 193.02H195.066C191.347 193.02 188.333 190.332 188.333 187.016Z" fill="url(#paint14_linear_217_70)"/>
<path d="M132.228 187.016C132.228 183.7 135.242 181.012 138.96 181.012H173.746C177.464 181.012 180.478 183.7 180.478 187.016C180.478 190.332 177.464 193.02 173.746 193.02H138.96C135.242 193.02 132.228 190.332 132.228 187.016Z" fill="url(#paint15_linear_217_70)"/>
<path d="M63.7787 187.016C63.7787 183.7 66.793 181.012 70.5114 181.012H117.64C121.358 181.012 124.373 183.7 124.373 187.016C124.373 190.332 121.358 193.02 117.64 193.02H70.5114C66.793 193.02 63.7787 190.332 63.7787 187.016Z" fill="url(#paint16_linear_217_70)"/>
<path d="M0.94043 187.016C0.94043 183.7 3.95475 181.012 7.6731 181.012H49.1913C52.9096 181.012 55.9239 183.7 55.9239 187.016C55.9239 190.332 52.9096 193.02 49.1913 193.02H7.6731C3.95475 193.02 0.94043 190.332 0.94043 187.016Z" fill="url(#paint17_linear_217_70)"/>
<path d="M0.94043 167.004C0.94043 163.688 3.95475 161 7.6731 161H57.046C60.7644 161 63.7787 163.688 63.7787 167.004C63.7787 170.319 60.7644 173.007 57.046 173.007H7.6731C3.95475 173.007 0.94043 170.319 0.94043 167.004Z" fill="url(#paint18_linear_217_70)"/>
<path d="M0.94043 146.991C0.94043 143.675 3.95475 140.988 7.6731 140.988H95.1978C98.9162 140.988 101.931 143.675 101.931 146.991C101.931 150.307 98.9162 152.995 95.1978 152.995H7.6731C3.95475 152.995 0.94043 150.307 0.94043 146.991Z" fill="url(#paint19_linear_217_70)"/>
<path d="M0.94043 126.979C0.94043 123.663 3.95475 120.975 7.6731 120.975H63.7787C67.4971 120.975 70.5114 123.663 70.5114 126.979C70.5114 130.295 67.4971 132.983 63.7787 132.983H7.6731C3.95475 132.983 0.94043 130.295 0.94043 126.979Z" fill="url(#paint20_linear_217_70)"/>
<path d="M0.94043 86.9541C0.94043 83.6383 3.95475 80.9504 7.6731 80.9504H11.0394C14.7578 80.9504 17.7721 83.6383 17.7721 86.9541C17.7721 90.2699 14.7578 92.9578 11.0394 92.9578H7.6731C3.95475 92.9578 0.94043 90.2699 0.94043 86.9541Z" fill="url(#paint21_linear_217_70)"/>
<path d="M0.94043 106.966C0.94043 103.651 3.95475 100.963 7.6731 100.963H57.046C60.7644 100.963 63.7787 103.651 63.7787 106.966C63.7787 110.282 60.7644 112.97 57.046 112.97H7.6731C3.95475 112.97 0.94043 110.282 0.94043 106.966Z" fill="url(#paint22_linear_217_70)"/>
<path d="M182.723 6.90459C182.723 3.58883 185.737 0.900879 189.455 0.900879H257.904C261.622 0.900879 264.637 3.58883 264.637 6.90459C264.637 10.2204 261.622 12.9083 257.904 12.9083H189.455C185.737 12.9083 182.723 10.2204 182.723 6.90459Z" fill="url(#paint23_linear_217_70)"/>
<path d="M115.396 6.90459C115.396 3.58883 118.41 0.900879 122.129 0.900879H169.257C172.976 0.900879 175.99 3.58883 175.99 6.90459C175.99 10.2204 172.976 12.9083 169.257 12.9083H122.129C118.41 12.9083 115.396 10.2204 115.396 6.90459Z" fill="url(#paint24_linear_217_70)"/>
<path d="M86.221 6.90459C86.221 3.58883 89.2353 0.900879 92.9536 0.900879H101.931C105.649 0.900879 108.663 3.58883 108.663 6.90459C108.663 10.2204 105.649 12.9083 101.931 12.9083H92.9536C89.2353 12.9083 86.221 10.2204 86.221 6.90459Z" fill="url(#paint25_linear_217_70)"/>
<path d="M55.9239 6.90459C55.9239 3.58883 58.9382 0.900879 62.6566 0.900879H72.7556C76.474 0.900879 79.4883 3.58883 79.4883 6.90459C79.4883 10.2204 76.474 12.9083 72.7556 12.9083H62.6566C58.9382 12.9083 55.9239 10.2204 55.9239 6.90459Z" fill="url(#paint26_linear_217_70)"/>
<path d="M55.9239 66.9417C55.9239 63.626 58.9382 60.938 62.6566 60.938H83.9767C87.6951 60.938 90.7094 63.626 90.7094 66.9417C90.7094 70.2575 87.6951 72.9454 83.9767 72.9454H62.6566C58.9382 72.9454 55.9239 70.2575 55.9239 66.9417Z" fill="url(#paint27_linear_217_70)"/>
<path d="M24.5048 66.9417C24.5048 63.626 27.5191 60.938 31.2375 60.938H42.4586C46.1769 60.938 49.1913 63.626 49.1913 66.9417C49.1913 70.2575 46.1769 72.9454 42.4586 72.9454H31.2375C27.5191 72.9454 24.5048 70.2575 24.5048 66.9417Z" fill="url(#paint28_linear_217_70)"/>
<path d="M25.6269 86.9541C25.6269 83.6383 28.6412 80.9504 32.3596 80.9504H101.931C105.649 80.9504 108.663 83.6383 108.663 86.9541C108.663 90.2699 105.649 92.9578 101.931 92.9578H32.3596C28.6412 92.9578 25.6269 90.2699 25.6269 86.9541Z" fill="url(#paint29_linear_217_70)"/>
<path d="M0.94043 66.9417C0.94043 63.626 3.95475 60.938 7.6731 60.938H11.0394C14.7578 60.938 17.7721 63.626 17.7721 66.9417C17.7721 70.2575 14.7578 72.9454 11.0394 72.9454H7.6731C3.95475 72.9454 0.94043 70.2575 0.94043 66.9417Z" fill="url(#paint30_linear_217_70)"/>
<path d="M0.94043 46.9293C0.94043 43.6136 3.95475 40.9256 7.6731 40.9256H72.7556C76.474 40.9256 79.4883 43.6136 79.4883 46.9293C79.4883 50.2451 76.474 52.9331 72.7556 52.9331H7.6731C3.95475 52.9331 0.94043 50.2451 0.94043 46.9293Z" fill="url(#paint31_linear_217_70)"/>
<path d="M90.7094 26.917C90.7094 23.6012 93.7237 20.9133 97.4421 20.9133H144.571C148.289 20.9133 151.303 23.6012 151.303 26.917C151.303 30.2327 148.289 32.9207 144.571 32.9207H97.4421C93.7237 32.9207 90.7094 30.2327 90.7094 26.917Z" fill="url(#paint32_linear_217_70)"/>
<path d="M0.94043 26.917C0.94043 23.6012 3.95475 20.9133 7.6731 20.9133H72.7556C76.474 20.9133 79.4883 23.6012 79.4883 26.917C79.4883 30.2327 76.474 32.9207 72.7556 32.9207H7.6731C3.95475 32.9207 0.94043 30.2327 0.94043 26.917Z" fill="url(#paint33_linear_217_70)"/>
<defs>
<linearGradient id="paint0_linear_217_70" x1="0.94043" y1="0.900879" x2="214.649" y2="217.437" gradientUnits="userSpaceOnUse">
<stop stop-color="#4C8FED"/>
<stop offset="1" stop-color="#2B3988"/>
</linearGradient>
<linearGradient id="paint1_linear_217_70" x1="0.94043" y1="0.900879" x2="214.649" y2="217.437" gradientUnits="userSpaceOnUse">
<stop stop-color="#4C8FED"/>
<stop offset="1" stop-color="#2B3988"/>
</linearGradient>
<linearGradient id="paint2_linear_217_70" x1="0.94043" y1="0.900879" x2="214.649" y2="217.437" gradientUnits="userSpaceOnUse">
<stop stop-color="#4C8FED"/>
<stop offset="1" stop-color="#2B3988"/>
</linearGradient>
<linearGradient id="paint3_linear_217_70" x1="0.94043" y1="0.900879" x2="214.649" y2="217.437" gradientUnits="userSpaceOnUse">
<stop stop-color="#4C8FED"/>
<stop offset="1" stop-color="#2B3988"/>
</linearGradient>
<linearGradient id="paint4_linear_217_70" x1="0.94043" y1="0.900879" x2="214.649" y2="217.437" gradientUnits="userSpaceOnUse">
<stop stop-color="#4C8FED"/>
<stop offset="1" stop-color="#2B3988"/>
</linearGradient>
<linearGradient id="paint5_linear_217_70" x1="0.94043" y1="0.900879" x2="214.649" y2="217.437" gradientUnits="userSpaceOnUse">
<stop stop-color="#4C8FED"/>
<stop offset="1" stop-color="#2B3988"/>
</linearGradient>
<linearGradient id="paint6_linear_217_70" x1="0.94043" y1="0.900879" x2="214.649" y2="217.437" gradientUnits="userSpaceOnUse">
<stop stop-color="#4C8FED"/>
<stop offset="1" stop-color="#2B3988"/>
</linearGradient>
<linearGradient id="paint7_linear_217_70" x1="0.94043" y1="0.900879" x2="214.649" y2="217.437" gradientUnits="userSpaceOnUse">
<stop stop-color="#4C8FED"/>
<stop offset="1" stop-color="#2B3988"/>
</linearGradient>
<linearGradient id="paint8_linear_217_70" x1="0.94043" y1="0.900879" x2="214.649" y2="217.437" gradientUnits="userSpaceOnUse">
<stop stop-color="#4C8FED"/>
<stop offset="1" stop-color="#2B3988"/>
</linearGradient>
<linearGradient id="paint9_linear_217_70" x1="0.94043" y1="0.900879" x2="214.649" y2="217.437" gradientUnits="userSpaceOnUse">
<stop stop-color="#4C8FED"/>
<stop offset="1" stop-color="#2B3988"/>
</linearGradient>
<linearGradient id="paint10_linear_217_70" x1="0.94043" y1="0.900879" x2="214.649" y2="217.437" gradientUnits="userSpaceOnUse">
<stop stop-color="#4C8FED"/>
<stop offset="1" stop-color="#2B3988"/>
</linearGradient>
<linearGradient id="paint11_linear_217_70" x1="0.94043" y1="0.900879" x2="214.649" y2="217.437" gradientUnits="userSpaceOnUse">
<stop stop-color="#4C8FED"/>
<stop offset="1" stop-color="#2B3988"/>
</linearGradient>
<linearGradient id="paint12_linear_217_70" x1="0.94043" y1="0.900879" x2="214.649" y2="217.437" gradientUnits="userSpaceOnUse">
<stop stop-color="#4C8FED"/>
<stop offset="1" stop-color="#2B3988"/>
</linearGradient>
<linearGradient id="paint13_linear_217_70" x1="0.94043" y1="0.900879" x2="214.649" y2="217.437" gradientUnits="userSpaceOnUse">
<stop stop-color="#4C8FED"/>
<stop offset="1" stop-color="#2B3988"/>
</linearGradient>
<linearGradient id="paint14_linear_217_70" x1="0.94043" y1="0.900879" x2="214.649" y2="217.437" gradientUnits="userSpaceOnUse">
<stop stop-color="#4C8FED"/>
<stop offset="1" stop-color="#2B3988"/>
</linearGradient>
<linearGradient id="paint15_linear_217_70" x1="0.94043" y1="0.900879" x2="214.649" y2="217.437" gradientUnits="userSpaceOnUse">
<stop stop-color="#4C8FED"/>
<stop offset="1" stop-color="#2B3988"/>
</linearGradient>
<linearGradient id="paint16_linear_217_70" x1="0.94043" y1="0.900879" x2="214.649" y2="217.437" gradientUnits="userSpaceOnUse">
<stop stop-color="#4C8FED"/>
<stop offset="1" stop-color="#2B3988"/>
</linearGradient>
<linearGradient id="paint17_linear_217_70" x1="0.94043" y1="0.900879" x2="214.649" y2="217.437" gradientUnits="userSpaceOnUse">
<stop stop-color="#4C8FED"/>
<stop offset="1" stop-color="#2B3988"/>
</linearGradient>
<linearGradient id="paint18_linear_217_70" x1="0.94043" y1="0.900879" x2="214.649" y2="217.437" gradientUnits="userSpaceOnUse">
<stop stop-color="#4C8FED"/>
<stop offset="1" stop-color="#2B3988"/>
</linearGradient>
<linearGradient id="paint19_linear_217_70" x1="0.94043" y1="0.900879" x2="214.649" y2="217.437" gradientUnits="userSpaceOnUse">
<stop stop-color="#4C8FED"/>
<stop offset="1" stop-color="#2B3988"/>
</linearGradient>
<linearGradient id="paint20_linear_217_70" x1="0.94043" y1="0.900879" x2="214.649" y2="217.437" gradientUnits="userSpaceOnUse">
<stop stop-color="#4C8FED"/>
<stop offset="1" stop-color="#2B3988"/>
</linearGradient>
<linearGradient id="paint21_linear_217_70" x1="0.94043" y1="0.900879" x2="214.649" y2="217.437" gradientUnits="userSpaceOnUse">
<stop stop-color="#4C8FED"/>
<stop offset="1" stop-color="#2B3988"/>
</linearGradient>
<linearGradient id="paint22_linear_217_70" x1="0.94043" y1="0.900879" x2="214.649" y2="217.437" gradientUnits="userSpaceOnUse">
<stop stop-color="#4C8FED"/>
<stop offset="1" stop-color="#2B3988"/>
</linearGradient>
<linearGradient id="paint23_linear_217_70" x1="0.94043" y1="0.900879" x2="214.649" y2="217.437" gradientUnits="userSpaceOnUse">
<stop stop-color="#4C8FED"/>
<stop offset="1" stop-color="#2B3988"/>
</linearGradient>
<linearGradient id="paint24_linear_217_70" x1="0.94043" y1="0.900879" x2="214.649" y2="217.437" gradientUnits="userSpaceOnUse">
<stop stop-color="#4C8FED"/>
<stop offset="1" stop-color="#2B3988"/>
</linearGradient>
<linearGradient id="paint25_linear_217_70" x1="0.94043" y1="0.900879" x2="214.649" y2="217.437" gradientUnits="userSpaceOnUse">
<stop stop-color="#4C8FED"/>
<stop offset="1" stop-color="#2B3988"/>
</linearGradient>
<linearGradient id="paint26_linear_217_70" x1="0.94043" y1="0.900879" x2="214.649" y2="217.437" gradientUnits="userSpaceOnUse">
<stop stop-color="#4C8FED"/>
<stop offset="1" stop-color="#2B3988"/>
</linearGradient>
<linearGradient id="paint27_linear_217_70" x1="0.94043" y1="0.900879" x2="214.649" y2="217.437" gradientUnits="userSpaceOnUse">
<stop stop-color="#4C8FED"/>
<stop offset="1" stop-color="#2B3988"/>
</linearGradient>
<linearGradient id="paint28_linear_217_70" x1="0.94043" y1="0.900879" x2="214.649" y2="217.437" gradientUnits="userSpaceOnUse">
<stop stop-color="#4C8FED"/>
<stop offset="1" stop-color="#2B3988"/>
</linearGradient>
<linearGradient id="paint29_linear_217_70" x1="0.94043" y1="0.900879" x2="214.649" y2="217.437" gradientUnits="userSpaceOnUse">
<stop stop-color="#4C8FED"/>
<stop offset="1" stop-color="#2B3988"/>
</linearGradient>
<linearGradient id="paint30_linear_217_70" x1="0.94043" y1="0.900879" x2="214.649" y2="217.437" gradientUnits="userSpaceOnUse">
<stop stop-color="#4C8FED"/>
<stop offset="1" stop-color="#2B3988"/>
</linearGradient>
<linearGradient id="paint31_linear_217_70" x1="0.94043" y1="0.900879" x2="214.649" y2="217.437" gradientUnits="userSpaceOnUse">
<stop stop-color="#4C8FED"/>
<stop offset="1" stop-color="#2B3988"/>
</linearGradient>
<linearGradient id="paint32_linear_217_70" x1="0.94043" y1="0.900879" x2="214.649" y2="217.437" gradientUnits="userSpaceOnUse">
<stop stop-color="#4C8FED"/>
<stop offset="1" stop-color="#2B3988"/>
</linearGradient>
<linearGradient id="paint33_linear_217_70" x1="0.94043" y1="0.900879" x2="214.649" y2="217.437" gradientUnits="userSpaceOnUse">
<stop stop-color="#4C8FED"/>
<stop offset="1" stop-color="#2B3988"/>
</linearGradient>
</defs>
</svg>
