<svg width="304" height="194" viewBox="0 0 304 194" fill="none" xmlns="http://www.w3.org/2000/svg">
<path d="M0.940674 6.90459C0.940674 3.58883 3.95499 0.900879 7.67335 0.900879H42.4588C46.1772 0.900879 49.1915 3.58883 49.1915 6.90459C49.1915 10.2204 46.1772 12.9083 42.4588 12.9083H7.67335C3.95499 12.9083 0.940674 10.2204 0.940674 6.90459Z" fill="url(#paint0_linear_201_77)"/>
<path d="M132.228 106.966C132.228 103.651 135.242 100.963 138.96 100.963H173.746C177.464 100.963 180.479 103.651 180.479 106.966C180.479 110.282 177.464 112.97 173.746 112.97H138.96C135.242 112.97 132.228 110.282 132.228 106.966Z" fill="url(#paint1_linear_201_77)"/>
<path d="M149.059 126.979C149.059 123.663 152.074 120.975 155.792 120.975H297.178C300.897 120.975 303.911 123.663 303.911 126.979C303.911 130.295 300.897 132.983 297.178 132.983H155.792C152.074 132.983 149.059 130.295 149.059 126.979Z" fill="url(#paint2_linear_201_77)"/>
<path d="M115.396 126.979C115.396 123.663 118.41 120.975 122.129 120.975H133.35C137.068 120.975 140.083 123.663 140.083 126.979C140.083 130.295 137.068 132.983 133.35 132.983H122.129C118.41 132.983 115.396 130.295 115.396 126.979Z" fill="url(#paint3_linear_201_77)"/>
<path d="M79.4885 126.979C79.4885 123.663 82.5028 120.975 86.2212 120.975H101.931C105.649 120.975 108.663 123.663 108.663 126.979C108.663 130.295 105.649 132.983 101.931 132.983H86.2212C82.5028 132.983 79.4885 130.295 79.4885 126.979Z" fill="url(#paint4_linear_201_77)"/>
<path d="M213.02 46.9293C213.02 43.6136 216.034 40.9256 219.753 40.9256H254.538C258.256 40.9256 261.271 43.6136 261.271 46.9293C261.271 50.2451 258.256 52.9331 254.538 52.9331H219.753C216.034 52.9331 213.02 50.2451 213.02 46.9293Z" fill="url(#paint5_linear_201_77)"/>
<path d="M154.67 46.9293C154.67 43.6136 157.684 40.9256 161.403 40.9256H196.188C199.907 40.9256 202.921 43.6136 202.921 46.9293C202.921 50.2451 199.907 52.9331 196.188 52.9331H161.403C157.684 52.9331 154.67 50.2451 154.67 46.9293Z" fill="url(#paint6_linear_201_77)"/>
<path d="M179.357 86.9541C179.357 83.6383 182.371 80.9504 186.089 80.9504H268.003C271.722 80.9504 274.736 83.6383 274.736 86.9541C274.736 90.2699 271.722 92.9578 268.003 92.9578H186.089C182.371 92.9578 179.357 90.2699 179.357 86.9541Z" fill="url(#paint7_linear_201_77)"/>
<path d="M119.885 86.9541C119.885 83.6383 122.899 80.9504 126.617 80.9504H161.403C165.121 80.9504 168.135 83.6383 168.135 86.9541C168.135 90.2699 165.121 92.9578 161.403 92.9578H126.617C122.899 92.9578 119.885 90.2699 119.885 86.9541Z" fill="url(#paint8_linear_201_77)"/>
<path d="M73.878 106.966C73.878 103.651 76.8923 100.963 80.6106 100.963H115.396C119.114 100.963 122.129 103.651 122.129 106.966C122.129 110.282 119.114 112.97 115.396 112.97H80.6106C76.8923 112.97 73.878 110.282 73.878 106.966Z" fill="url(#paint9_linear_201_77)"/>
<path d="M90.7096 46.9293C90.7096 43.6136 93.724 40.9256 97.4423 40.9256H137.838C141.557 40.9256 144.571 43.6136 144.571 46.9293C144.571 50.2451 141.557 52.9331 137.838 52.9331H97.4423C93.724 52.9331 90.7096 50.2451 90.7096 46.9293Z" fill="url(#paint10_linear_201_77)"/>
<path d="M195.066 146.991C195.066 143.675 198.08 140.988 201.799 140.988H263.515C267.233 140.988 270.248 143.675 270.248 146.991C270.248 150.307 267.233 152.995 263.515 152.995H201.799C198.08 152.995 195.066 150.307 195.066 146.991Z" fill="url(#paint11_linear_201_77)"/>
<path d="M108.663 146.991C108.663 143.675 111.678 140.988 115.396 140.988H181.601C185.319 140.988 188.333 143.675 188.333 146.991C188.333 150.307 185.319 152.995 181.601 152.995H115.396C111.678 152.995 108.663 150.307 108.663 146.991Z" fill="url(#paint12_linear_201_77)"/>
<path d="M228.729 187.016C228.729 183.7 231.744 181.012 235.462 181.012H257.904C261.623 181.012 264.637 183.7 264.637 187.016C264.637 190.332 261.623 193.02 257.904 193.02H235.462C231.744 193.02 228.729 190.332 228.729 187.016Z" fill="url(#paint13_linear_201_77)"/>
<path d="M188.333 187.016C188.333 183.7 191.348 181.012 195.066 181.012H216.386C220.105 181.012 223.119 183.7 223.119 187.016C223.119 190.332 220.105 193.02 216.386 193.02H195.066C191.348 193.02 188.333 190.332 188.333 187.016Z" fill="url(#paint14_linear_201_77)"/>
<path d="M132.228 187.016C132.228 183.7 135.242 181.012 138.96 181.012H173.746C177.464 181.012 180.479 183.7 180.479 187.016C180.479 190.332 177.464 193.02 173.746 193.02H138.96C135.242 193.02 132.228 190.332 132.228 187.016Z" fill="url(#paint15_linear_201_77)"/>
<path d="M63.779 187.016C63.779 183.7 66.7933 181.012 70.5116 181.012H117.64C121.359 181.012 124.373 183.7 124.373 187.016C124.373 190.332 121.359 193.02 117.64 193.02H70.5116C66.7933 193.02 63.779 190.332 63.779 187.016Z" fill="url(#paint16_linear_201_77)"/>
<path d="M0.940674 187.016C0.940674 183.7 3.95499 181.012 7.67335 181.012H49.1915C52.9098 181.012 55.9242 183.7 55.9242 187.016C55.9242 190.332 52.9098 193.02 49.1915 193.02H7.67335C3.95499 193.02 0.940674 190.332 0.940674 187.016Z" fill="url(#paint17_linear_201_77)"/>
<path d="M0.940674 167.004C0.940674 163.688 3.95499 161 7.67335 161H57.0463C60.7646 161 63.779 163.688 63.779 167.004C63.779 170.319 60.7646 173.007 57.0463 173.007H7.67335C3.95499 173.007 0.940674 170.319 0.940674 167.004Z" fill="url(#paint18_linear_201_77)"/>
<path d="M0.940674 146.991C0.940674 143.675 3.95499 140.988 7.67335 140.988H95.1981C98.9164 140.988 101.931 143.675 101.931 146.991C101.931 150.307 98.9164 152.995 95.1981 152.995H7.67335C3.95499 152.995 0.940674 150.307 0.940674 146.991Z" fill="url(#paint19_linear_201_77)"/>
<path d="M0.940674 126.979C0.940674 123.663 3.95499 120.975 7.67335 120.975H63.779C67.4973 120.975 70.5116 123.663 70.5116 126.979C70.5116 130.295 67.4973 132.983 63.779 132.983H7.67335C3.955 132.983 0.940674 130.295 0.940674 126.979Z" fill="url(#paint20_linear_201_77)"/>
<path d="M0.940674 86.9541C0.940674 83.6383 3.95499 80.9504 7.67335 80.9504H11.0397C14.758 80.9504 17.7724 83.6383 17.7724 86.9541C17.7724 90.2699 14.758 92.9578 11.0397 92.9578H7.67335C3.95499 92.9578 0.940674 90.2699 0.940674 86.9541Z" fill="url(#paint21_linear_201_77)"/>
<path d="M0.940674 106.966C0.940674 103.651 3.95499 100.963 7.67335 100.963H57.0463C60.7646 100.963 63.779 103.651 63.779 106.966C63.779 110.282 60.7646 112.97 57.0463 112.97H7.67335C3.95499 112.97 0.940674 110.282 0.940674 106.966Z" fill="url(#paint22_linear_201_77)"/>
<path d="M182.723 6.90459C182.723 3.58883 185.737 0.900879 189.456 0.900879H257.904C261.623 0.900879 264.637 3.58883 264.637 6.90459C264.637 10.2204 261.623 12.9083 257.904 12.9083H189.456C185.737 12.9083 182.723 10.2204 182.723 6.90459Z" fill="url(#paint23_linear_201_77)"/>
<path d="M115.396 6.90459C115.396 3.58883 118.41 0.900879 122.129 0.900879H169.257C172.976 0.900879 175.99 3.58883 175.99 6.90459C175.99 10.2204 172.976 12.9083 169.257 12.9083H122.129C118.41 12.9083 115.396 10.2204 115.396 6.90459Z" fill="url(#paint24_linear_201_77)"/>
<path d="M86.2212 6.90459C86.2212 3.58883 89.2355 0.900879 92.9539 0.900879H101.931C105.649 0.900879 108.663 3.58883 108.663 6.90459C108.663 10.2204 105.649 12.9083 101.931 12.9083H92.9539C89.2355 12.9083 86.2212 10.2204 86.2212 6.90459Z" fill="url(#paint25_linear_201_77)"/>
<path d="M55.9242 6.90459C55.9242 3.58883 58.9385 0.900879 62.6568 0.900879H72.7559C76.4742 0.900879 79.4885 3.58883 79.4885 6.90459C79.4885 10.2204 76.4742 12.9083 72.7559 12.9083H62.6568C58.9385 12.9083 55.9242 10.2204 55.9242 6.90459Z" fill="url(#paint26_linear_201_77)"/>
<path d="M55.9242 66.9417C55.9242 63.626 58.9385 60.938 62.6568 60.938H83.977C87.6953 60.938 90.7096 63.626 90.7096 66.9417C90.7096 70.2575 87.6953 72.9454 83.977 72.9454H62.6568C58.9385 72.9454 55.9242 70.2575 55.9242 66.9417Z" fill="url(#paint27_linear_201_77)"/>
<path d="M24.505 66.9417C24.505 63.626 27.5194 60.938 31.2377 60.938H42.4588C46.1772 60.938 49.1915 63.626 49.1915 66.9417C49.1915 70.2575 46.1772 72.9454 42.4588 72.9454H31.2377C27.5194 72.9454 24.505 70.2575 24.505 66.9417Z" fill="url(#paint28_linear_201_77)"/>
<path d="M25.6271 86.9541C25.6271 83.6383 28.6415 80.9504 32.3598 80.9504H101.931C105.649 80.9504 108.663 83.6383 108.663 86.9541C108.663 90.2699 105.649 92.9578 101.931 92.9578H32.3598C28.6415 92.9578 25.6271 90.2699 25.6271 86.9541Z" fill="url(#paint29_linear_201_77)"/>
<path d="M0.940674 66.9417C0.940674 63.626 3.95499 60.938 7.67335 60.938H11.0397C14.758 60.938 17.7724 63.626 17.7724 66.9417C17.7724 70.2575 14.758 72.9454 11.0397 72.9454H7.67335C3.95499 72.9454 0.940674 70.2575 0.940674 66.9417Z" fill="url(#paint30_linear_201_77)"/>
<path d="M0.940674 46.9293C0.940674 43.6136 3.95499 40.9256 7.67335 40.9256H72.7559C76.4742 40.9256 79.4885 43.6136 79.4885 46.9293C79.4885 50.2451 76.4742 52.9331 72.7559 52.9331H7.67335C3.95499 52.9331 0.940674 50.2451 0.940674 46.9293Z" fill="url(#paint31_linear_201_77)"/>
<path d="M90.7096 26.917C90.7096 23.6012 93.724 20.9133 97.4423 20.9133H144.571C148.289 20.9133 151.304 23.6012 151.304 26.917C151.304 30.2327 148.289 32.9207 144.571 32.9207H97.4423C93.724 32.9207 90.7096 30.2327 90.7096 26.917Z" fill="url(#paint32_linear_201_77)"/>
<path d="M0.940674 26.917C0.940674 23.6012 3.95499 20.9133 7.67335 20.9133H72.7559C76.4742 20.9133 79.4885 23.6012 79.4885 26.917C79.4885 30.2327 76.4742 32.9207 72.7559 32.9207H7.67335C3.95499 32.9207 0.940674 30.2327 0.940674 26.917Z" fill="url(#paint33_linear_201_77)"/>
<defs>
<linearGradient id="paint0_linear_201_77" x1="0.940674" y1="0.900879" x2="214.649" y2="217.437" gradientUnits="userSpaceOnUse">
<stop stop-color="#31E3EA"/>
<stop offset="1" stop-color="#566CE9"/>
</linearGradient>
<linearGradient id="paint1_linear_201_77" x1="0.940674" y1="0.900879" x2="214.649" y2="217.437" gradientUnits="userSpaceOnUse">
<stop stop-color="#31E3EA"/>
<stop offset="1" stop-color="#566CE9"/>
</linearGradient>
<linearGradient id="paint2_linear_201_77" x1="0.940674" y1="0.900879" x2="214.649" y2="217.437" gradientUnits="userSpaceOnUse">
<stop stop-color="#31E3EA"/>
<stop offset="1" stop-color="#566CE9"/>
</linearGradient>
<linearGradient id="paint3_linear_201_77" x1="0.940674" y1="0.900879" x2="214.649" y2="217.437" gradientUnits="userSpaceOnUse">
<stop stop-color="#31E3EA"/>
<stop offset="1" stop-color="#566CE9"/>
</linearGradient>
<linearGradient id="paint4_linear_201_77" x1="0.940674" y1="0.900879" x2="214.649" y2="217.437" gradientUnits="userSpaceOnUse">
<stop stop-color="#31E3EA"/>
<stop offset="1" stop-color="#566CE9"/>
</linearGradient>
<linearGradient id="paint5_linear_201_77" x1="0.940674" y1="0.900879" x2="214.649" y2="217.437" gradientUnits="userSpaceOnUse">
<stop stop-color="#31E3EA"/>
<stop offset="1" stop-color="#566CE9"/>
</linearGradient>
<linearGradient id="paint6_linear_201_77" x1="0.940674" y1="0.900879" x2="214.649" y2="217.437" gradientUnits="userSpaceOnUse">
<stop stop-color="#31E3EA"/>
<stop offset="1" stop-color="#566CE9"/>
</linearGradient>
<linearGradient id="paint7_linear_201_77" x1="0.940674" y1="0.900879" x2="214.649" y2="217.437" gradientUnits="userSpaceOnUse">
<stop stop-color="#31E3EA"/>
<stop offset="1" stop-color="#566CE9"/>
</linearGradient>
<linearGradient id="paint8_linear_201_77" x1="0.940674" y1="0.900879" x2="214.649" y2="217.437" gradientUnits="userSpaceOnUse">
<stop stop-color="#31E3EA"/>
<stop offset="1" stop-color="#566CE9"/>
</linearGradient>
<linearGradient id="paint9_linear_201_77" x1="0.940674" y1="0.900879" x2="214.649" y2="217.437" gradientUnits="userSpaceOnUse">
<stop stop-color="#31E3EA"/>
<stop offset="1" stop-color="#566CE9"/>
</linearGradient>
<linearGradient id="paint10_linear_201_77" x1="0.940674" y1="0.900879" x2="214.649" y2="217.437" gradientUnits="userSpaceOnUse">
<stop stop-color="#31E3EA"/>
<stop offset="1" stop-color="#566CE9"/>
</linearGradient>
<linearGradient id="paint11_linear_201_77" x1="0.940674" y1="0.900879" x2="214.649" y2="217.437" gradientUnits="userSpaceOnUse">
<stop stop-color="#31E3EA"/>
<stop offset="1" stop-color="#566CE9"/>
</linearGradient>
<linearGradient id="paint12_linear_201_77" x1="0.940674" y1="0.900879" x2="214.649" y2="217.437" gradientUnits="userSpaceOnUse">
<stop stop-color="#31E3EA"/>
<stop offset="1" stop-color="#566CE9"/>
</linearGradient>
<linearGradient id="paint13_linear_201_77" x1="0.940674" y1="0.900879" x2="214.649" y2="217.437" gradientUnits="userSpaceOnUse">
<stop stop-color="#31E3EA"/>
<stop offset="1" stop-color="#566CE9"/>
</linearGradient>
<linearGradient id="paint14_linear_201_77" x1="0.940674" y1="0.900879" x2="214.649" y2="217.437" gradientUnits="userSpaceOnUse">
<stop stop-color="#31E3EA"/>
<stop offset="1" stop-color="#566CE9"/>
</linearGradient>
<linearGradient id="paint15_linear_201_77" x1="0.940674" y1="0.900879" x2="214.649" y2="217.437" gradientUnits="userSpaceOnUse">
<stop stop-color="#31E3EA"/>
<stop offset="1" stop-color="#566CE9"/>
</linearGradient>
<linearGradient id="paint16_linear_201_77" x1="0.940674" y1="0.900879" x2="214.649" y2="217.437" gradientUnits="userSpaceOnUse">
<stop stop-color="#31E3EA"/>
<stop offset="1" stop-color="#566CE9"/>
</linearGradient>
<linearGradient id="paint17_linear_201_77" x1="0.940674" y1="0.900879" x2="214.649" y2="217.437" gradientUnits="userSpaceOnUse">
<stop stop-color="#31E3EA"/>
<stop offset="1" stop-color="#566CE9"/>
</linearGradient>
<linearGradient id="paint18_linear_201_77" x1="0.940674" y1="0.900879" x2="214.649" y2="217.437" gradientUnits="userSpaceOnUse">
<stop stop-color="#31E3EA"/>
<stop offset="1" stop-color="#566CE9"/>
</linearGradient>
<linearGradient id="paint19_linear_201_77" x1="0.940674" y1="0.900879" x2="214.649" y2="217.437" gradientUnits="userSpaceOnUse">
<stop stop-color="#31E3EA"/>
<stop offset="1" stop-color="#566CE9"/>
</linearGradient>
<linearGradient id="paint20_linear_201_77" x1="0.940674" y1="0.900879" x2="214.649" y2="217.437" gradientUnits="userSpaceOnUse">
<stop stop-color="#31E3EA"/>
<stop offset="1" stop-color="#566CE9"/>
</linearGradient>
<linearGradient id="paint21_linear_201_77" x1="0.940674" y1="0.900879" x2="214.649" y2="217.437" gradientUnits="userSpaceOnUse">
<stop stop-color="#31E3EA"/>
<stop offset="1" stop-color="#566CE9"/>
</linearGradient>
<linearGradient id="paint22_linear_201_77" x1="0.940674" y1="0.900879" x2="214.649" y2="217.437" gradientUnits="userSpaceOnUse">
<stop stop-color="#31E3EA"/>
<stop offset="1" stop-color="#566CE9"/>
</linearGradient>
<linearGradient id="paint23_linear_201_77" x1="0.940674" y1="0.900879" x2="214.649" y2="217.437" gradientUnits="userSpaceOnUse">
<stop stop-color="#31E3EA"/>
<stop offset="1" stop-color="#566CE9"/>
</linearGradient>
<linearGradient id="paint24_linear_201_77" x1="0.940674" y1="0.900879" x2="214.649" y2="217.437" gradientUnits="userSpaceOnUse">
<stop stop-color="#31E3EA"/>
<stop offset="1" stop-color="#566CE9"/>
</linearGradient>
<linearGradient id="paint25_linear_201_77" x1="0.940674" y1="0.900879" x2="214.649" y2="217.437" gradientUnits="userSpaceOnUse">
<stop stop-color="#31E3EA"/>
<stop offset="1" stop-color="#566CE9"/>
</linearGradient>
<linearGradient id="paint26_linear_201_77" x1="0.940674" y1="0.900879" x2="214.649" y2="217.437" gradientUnits="userSpaceOnUse">
<stop stop-color="#31E3EA"/>
<stop offset="1" stop-color="#566CE9"/>
</linearGradient>
<linearGradient id="paint27_linear_201_77" x1="0.940674" y1="0.900879" x2="214.649" y2="217.437" gradientUnits="userSpaceOnUse">
<stop stop-color="#31E3EA"/>
<stop offset="1" stop-color="#566CE9"/>
</linearGradient>
<linearGradient id="paint28_linear_201_77" x1="0.940674" y1="0.900879" x2="214.649" y2="217.437" gradientUnits="userSpaceOnUse">
<stop stop-color="#31E3EA"/>
<stop offset="1" stop-color="#566CE9"/>
</linearGradient>
<linearGradient id="paint29_linear_201_77" x1="0.940674" y1="0.900879" x2="214.649" y2="217.437" gradientUnits="userSpaceOnUse">
<stop stop-color="#31E3EA"/>
<stop offset="1" stop-color="#566CE9"/>
</linearGradient>
<linearGradient id="paint30_linear_201_77" x1="0.940674" y1="0.900879" x2="214.649" y2="217.437" gradientUnits="userSpaceOnUse">
<stop stop-color="#31E3EA"/>
<stop offset="1" stop-color="#566CE9"/>
</linearGradient>
<linearGradient id="paint31_linear_201_77" x1="0.940674" y1="0.900879" x2="214.649" y2="217.437" gradientUnits="userSpaceOnUse">
<stop stop-color="#31E3EA"/>
<stop offset="1" stop-color="#566CE9"/>
</linearGradient>
<linearGradient id="paint32_linear_201_77" x1="0.940674" y1="0.900879" x2="214.649" y2="217.437" gradientUnits="userSpaceOnUse">
<stop stop-color="#31E3EA"/>
<stop offset="1" stop-color="#566CE9"/>
</linearGradient>
<linearGradient id="paint33_linear_201_77" x1="0.940674" y1="0.900879" x2="214.649" y2="217.437" gradientUnits="userSpaceOnUse">
<stop stop-color="#31E3EA"/>
<stop offset="1" stop-color="#566CE9"/>
</linearGradient>
</defs>
</svg>
