<svg width="33" height="25" viewBox="0 0 33 25" fill="none" xmlns="http://www.w3.org/2000/svg">
<path d="M0.72495 5.51923L0.642186 3.84615C0.642186 2.82609 1.07817 1.84781 1.85423 1.12651C2.63029 0.405219 3.68286 0 4.78037 0H12.3781C13.4755 0.000217836 14.5279 0.405579 15.3038 1.12692L17.017 2.71923C17.7929 3.44057 18.8453 3.84594 19.9427 3.84615H28.1818C28.7569 3.8461 29.3256 3.95743 29.8518 4.17306C30.3779 4.38868 30.85 4.70387 31.2378 5.0985C31.6256 5.49313 31.9206 5.95856 32.1041 6.46508C32.2876 6.97161 32.3555 7.50812 32.3035 8.04038L30.9854 21.5019C30.892 22.4575 30.4176 23.3462 29.6554 23.9934C28.8932 24.6406 27.8983 24.9996 26.8659 25H5.4549C4.4225 24.9996 3.42754 24.6406 2.66534 23.9934C1.90314 23.3462 1.42876 22.4575 1.33533 21.5019L0.01732 8.04038C-0.0708519 7.14958 0.179525 6.25822 0.72495 5.52115V5.51923ZM4.13895 5.76923C3.85153 5.76922 3.56725 5.82486 3.30424 5.93261C3.04124 6.04037 2.80527 6.19787 2.61138 6.39508C2.4175 6.59229 2.26995 6.82488 2.17814 7.07803C2.08633 7.33118 2.05227 7.59933 2.07814 7.86538L3.39615 21.3269C3.44261 21.8047 3.67954 22.2491 4.06045 22.5729C4.44135 22.8967 4.93871 23.0765 5.4549 23.0769H26.8659C27.3821 23.0765 27.8794 22.8967 28.2603 22.5729C28.6412 22.2491 28.8782 21.8047 28.9246 21.3269L30.2426 7.86538C30.2685 7.59933 30.2345 7.33118 30.1426 7.07803C30.0508 6.82488 29.9033 6.59229 29.7094 6.39508C29.5155 6.19787 29.2795 6.04037 29.0165 5.93261C28.7535 5.82486 28.4693 5.76922 28.1818 5.76923H4.13895ZM13.843 2.48654C13.6507 2.30772 13.4223 2.16591 13.1709 2.06923C12.9195 1.97254 12.6501 1.92288 12.3781 1.92308H4.78037C4.23836 1.92299 3.71795 2.12057 3.33103 2.47335C2.94411 2.82614 2.72158 3.30594 2.71128 3.80962L2.72369 4.07692C3.16648 3.92692 3.64237 3.84615 4.13895 3.84615H15.3038L13.8409 2.48654H13.843Z" fill="#97A3B6"/>
</svg>
