<svg width="10" height="13" viewBox="0 0 10 13" fill="none" xmlns="http://www.w3.org/2000/svg">
<path d="M5 0C3.27688 0 1.875 1.45795 1.875 3.25V5.2H1.25C0.918479 5.2 0.600537 5.33696 0.366116 5.58076C0.131696 5.82456 0 6.15522 0 6.5V11.7C0 12.0448 0.131696 12.3754 0.366116 12.6192C0.600537 12.863 0.918479 13 1.25 13H8.75C9.08152 13 9.39946 12.863 9.63388 12.6192C9.8683 12.3754 10 12.0448 10 11.7V6.5C10 6.15522 9.8683 5.82456 9.63388 5.58076C9.39946 5.33696 9.08152 5.2 8.75 5.2H8.125V3.25C8.125 1.45795 6.72312 0 5 0ZM3.125 3.25C3.125 2.1749 3.96625 1.3 5 1.3C6.03375 1.3 6.875 2.1749 6.875 3.25V5.2H3.125V3.25ZM5.625 10.2199V11.7H4.375V10.2199C4.15649 10.0898 3.98104 9.89386 3.87177 9.65793C3.7625 9.422 3.72455 9.15717 3.76293 8.89835C3.8013 8.63954 3.9142 8.3989 4.08673 8.20816C4.25926 8.01742 4.48332 7.88553 4.72938 7.8299C4.91214 7.78787 5.10164 7.78905 5.2839 7.83333C5.46617 7.87762 5.63655 7.96389 5.78249 8.08579C5.92843 8.20768 6.04619 8.36209 6.12711 8.53762C6.20802 8.71315 6.25002 8.90534 6.25 9.1C6.24964 9.32733 6.19168 9.55055 6.08196 9.74717C5.97223 9.94378 5.81462 10.1069 5.625 10.2199V10.2199Z" fill="black" fill-opacity="0.4"/>
</svg>
