<svg width="38" height="30" viewBox="0 0 38 30" fill="none" xmlns="http://www.w3.org/2000/svg">
<path d="M34.2 30H3.8C2.79218 30 1.82563 29.6049 1.11299 28.9017C0.400356 28.1984 0 27.2446 0 26.25V3.58688C0.042622 2.62086 0.461717 1.70842 1.16979 1.04006C1.87786 0.371705 2.82017 -0.000913573 3.8 1.6821e-06H34.2C35.2078 1.6821e-06 36.1744 0.39509 36.887 1.09835C37.5996 1.80161 38 2.75544 38 3.75V26.25C38 27.2446 37.5996 28.1984 36.887 28.9017C36.1744 29.6049 35.2078 30 34.2 30ZM3.8 7.2525V26.25H34.2V7.2525L19 17.25L3.8 7.2525ZM5.32 3.75L19 12.75L32.68 3.75H5.32Z" fill="#97A3B6"/>
</svg>
