<svg width="43" height="43" viewBox="0 0 43 43" fill="none" xmlns="http://www.w3.org/2000/svg">
<path d="M3.76093 16.125H6.43538C6.8254 16.125 7.10399 15.957 7.27114 15.6211C7.7726 14.8372 8.32977 14.2214 8.94266 13.7734L9.10982 13.6055V5.375H10.8649C12.6479 5.375 14.3194 6.15885 15.8795 7.72656L16.0466 7.89453V7.30664C16.0466 5.34701 16.757 3.63932 18.1778 2.18359C19.5986 0.727865 21.312 0 23.3178 0C25.2679 0 26.9534 0.69987 28.3742 2.09961C29.7949 3.49935 30.5053 5.23503 30.5053 7.30664C30.5053 8.03451 30.4496 8.5944 30.3382 8.98633C31.8426 9.54622 33.3748 10.61 34.9349 12.1777L38.5287 10.918L39.9495 9.49023C40.7295 8.70638 41.5653 8.70638 42.4568 9.49023C43.1811 10.3301 43.1811 11.1699 42.4568 12.0098L40.2838 14.1934L37.275 15.2012C38.668 17.3288 39.3644 19.7363 39.3644 22.4238V25.1113L37.7765 39.8086C37.665 40.7044 37.2611 41.4603 36.5646 42.0762C35.8682 42.6921 35.0742 43 34.1827 43H31.759C31.0347 43 30.3382 42.776 29.6696 42.3281C29.001 41.8802 28.5552 41.2643 28.3324 40.4805L27.0787 36.8691C25.24 37.429 23.2342 37.625 21.0612 37.457L19.9747 40.4805C19.3061 42.0482 18.1639 42.832 16.5481 42.832H14.0408C13.1493 42.832 12.3554 42.5101 11.6589 41.8662C10.9624 41.2223 10.5863 40.4525 10.5306 39.5566L9.77843 32.418C8.16262 30.7943 7.04827 29.1146 6.43538 27.3789C6.26822 26.931 5.90606 26.707 5.34888 26.707H5.01458C3.67736 26.707 2.50729 26.2031 1.50437 25.1953C0.501459 24.1875 1.70246e-06 23.0117 1.70246e-06 21.668V19.7363C0.111437 18.7285 0.515389 17.8747 1.21186 17.1748C1.90833 16.4749 2.75802 16.125 3.76093 16.125ZM23.1506 3.61133C22.1477 3.61133 21.2702 3.97526 20.518 4.70312C19.7658 5.43099 19.3897 6.29883 19.3897 7.30664C19.3897 8.37044 19.7519 9.26628 20.4762 9.99414C21.2005 10.722 22.092 11.0859 23.1506 11.0859C24.2093 10.974 25.1007 10.568 25.8251 9.86816C26.5494 9.16829 26.9116 8.31445 26.9116 7.30664C26.9116 6.29883 26.5494 5.43099 25.8251 4.70312C25.1007 3.97526 24.2093 3.61133 23.1506 3.61133ZM3.76093 21.8359C3.76093 22.2279 3.90023 22.5638 4.17882 22.8438C4.4574 23.1237 4.79171 23.2637 5.18173 23.2637H5.51604C7.52187 23.2637 8.99838 24.2995 9.94558 26.3711C10.447 27.6029 11.3942 28.9746 12.7872 30.4863L13.3722 30.9902L14.2915 39.3887H16.7153L18.7211 33.6777L20.1419 33.8457C20.7548 33.9577 21.5348 34.0137 22.482 34.0137C24.0978 34.0137 25.8251 33.7337 27.6638 33.1738L29.4189 32.418L31.759 39.3887H34.1827L35.8542 24.9434V22.4238C35.8542 20.0163 35.1299 17.9167 33.6812 16.125C33.0126 15.901 32.5948 15.5371 32.4276 15.0332V14.6973C31.7033 13.9694 30.4496 13.1296 28.6667 12.1777C27.218 13.8574 25.4351 14.6973 23.3178 14.6973C20.6991 14.6973 18.6932 13.6335 17.3003 11.5059H17.1331C16.3531 11.8978 15.2109 11.5898 13.7065 10.582C13.5951 10.526 13.4279 10.4001 13.2051 10.2041C12.9822 10.0081 12.7872 9.88216 12.62 9.82617V15.2012L12.1186 15.7891C11.7843 16.125 11.4778 16.4049 11.1992 16.6289L10.7396 17.0908L10.3635 17.5527C9.36055 19.1204 8.05118 19.9043 6.43538 19.9043H3.76093V21.8359ZM14.4587 16.125C14.4587 16.6289 14.6259 17.0488 14.9602 17.3848C15.2945 17.7207 15.7123 17.8887 16.2138 17.8887C16.7153 17.8887 17.1331 17.7207 17.4674 17.3848C17.8018 17.0488 17.9689 16.6289 17.9689 16.125C17.9689 15.6211 17.8018 15.2012 17.4674 14.8652C17.1331 14.5293 16.7153 14.3613 16.2138 14.3613C15.7123 14.3613 15.2945 14.5293 14.9602 14.8652C14.6259 15.2012 14.4587 15.6211 14.4587 16.125Z" fill="#08BDD4"/>
</svg>
