<svg width="30" height="30" viewBox="0 0 30 30" fill="none" xmlns="http://www.w3.org/2000/svg">
<path d="M2.62391 11.25H4.4898C4.76191 11.25 4.95627 11.1328 5.07289 10.8984C5.42274 10.3516 5.81147 9.92188 6.23907 9.60938L6.35569 9.49219V3.75H7.58018C8.8241 3.75 9.99028 4.29688 11.0787 5.39062L11.1953 5.50781V5.09766C11.1953 3.73047 11.691 2.53906 12.6822 1.52344C13.6735 0.507812 14.8688 0 16.2682 0C17.6288 0 18.8047 0.488281 19.7959 1.46484C20.7872 2.44141 21.2828 3.65234 21.2828 5.09766C21.2828 5.60547 21.2439 5.99609 21.1662 6.26953C22.2157 6.66016 23.2847 7.40234 24.3732 8.49609L26.8805 7.61719L27.8717 6.62109C28.4159 6.07422 28.999 6.07422 29.621 6.62109C30.1263 7.20703 30.1263 7.79297 29.621 8.37891L28.105 9.90234L26.0058 10.6055C26.9776 12.0898 27.4636 13.7695 27.4636 15.6445V17.5195L26.3557 27.7734C26.2779 28.3984 25.9961 28.9258 25.5102 29.3555C25.0243 29.7852 24.4704 30 23.8484 30H22.1574C21.6521 30 21.1662 29.8438 20.6997 29.5312C20.2332 29.2187 19.9223 28.7891 19.7668 28.2422L18.8921 25.7227C17.6093 26.1133 16.2099 26.25 14.6939 26.1328L13.9359 28.2422C13.4694 29.3359 12.6725 29.8828 11.5452 29.8828H9.79592C9.17396 29.8828 8.62002 29.6582 8.13411 29.209C7.6482 28.7598 7.38581 28.2227 7.34694 27.5977L6.82216 22.6172C5.69485 21.4844 4.9174 20.3125 4.4898 19.1016C4.37318 18.7891 4.12051 18.6328 3.73178 18.6328H3.49854C2.5656 18.6328 1.74927 18.2812 1.04956 17.5781C0.349855 16.875 3.40864e-07 16.0547 3.40864e-07 15.1172V13.7695C0.0777457 13.0664 0.359573 12.4707 0.845481 11.9824C1.33139 11.4941 1.9242 11.25 2.62391 11.25ZM16.1516 2.51953C15.4519 2.51953 14.8397 2.77344 14.3149 3.28125C13.7901 3.78906 13.5277 4.39453 13.5277 5.09766C13.5277 5.83984 13.7804 6.46484 14.2857 6.97266C14.7911 7.48047 15.413 7.73438 16.1516 7.73438C16.8902 7.65625 17.5121 7.37305 18.0175 6.88477C18.5228 6.39648 18.7755 5.80078 18.7755 5.09766C18.7755 4.39453 18.5228 3.78906 18.0175 3.28125C17.5121 2.77344 16.8902 2.51953 16.1516 2.51953ZM2.62391 15.2344C2.62391 15.5078 2.72109 15.7422 2.91545 15.9375C3.10982 16.1328 3.34305 16.2305 3.61516 16.2305H3.8484C5.24781 16.2305 6.27794 16.9531 6.93878 18.3984C7.28863 19.2578 7.94947 20.2148 8.92128 21.2695L9.32945 21.6211L9.97085 27.4805H11.6618L13.0612 23.4961L14.0525 23.6133C14.4801 23.6914 15.0243 23.7305 15.6851 23.7305C16.8124 23.7305 18.0175 23.5352 19.3003 23.1445L20.5248 22.6172L22.1574 27.4805H23.8484L25.0146 17.4023V15.6445C25.0146 13.9648 24.5092 12.5 23.4985 11.25C23.0321 11.0937 22.7405 10.8398 22.6239 10.4883V10.2539C22.1186 9.74609 21.2439 9.16016 20 8.49609C18.9893 9.66797 17.7454 10.2539 16.2682 10.2539C14.4412 10.2539 13.0418 9.51172 12.07 8.02734H11.9534C11.4091 8.30078 10.6122 8.08594 9.56268 7.38281C9.48494 7.34375 9.36832 7.25586 9.21283 7.11914C9.05734 6.98242 8.92128 6.89453 8.80466 6.85547V10.6055L8.45481 11.0156C8.22157 11.25 8.00777 11.4453 7.81341 11.6016L7.49271 11.9238L7.23032 12.2461C6.53061 13.3398 5.6171 13.8867 4.4898 13.8867H2.62391V15.2344ZM10.0875 11.25C10.0875 11.6016 10.2041 11.8945 10.4373 12.1289C10.6706 12.3633 10.9621 12.4805 11.312 12.4805C11.6618 12.4805 11.9534 12.3633 12.1866 12.1289C12.4198 11.8945 12.5364 11.6016 12.5364 11.25C12.5364 10.8984 12.4198 10.6055 12.1866 10.3711C11.9534 10.1367 11.6618 10.0195 11.312 10.0195C10.9621 10.0195 10.6706 10.1367 10.4373 10.3711C10.2041 10.6055 10.0875 10.8984 10.0875 11.25Z" fill="#97A3B6"/>
</svg>
