<svg width="30" height="35" viewBox="0 0 30 35" fill="none" xmlns="http://www.w3.org/2000/svg">
<path d="M12.5 5C12.5 3.67392 13.0268 2.40215 13.9645 1.46447C14.9021 0.526784 16.1739 0 17.5 0C18.8261 0 20.0979 0.526784 21.0355 1.46447C21.9732 2.40215 22.5 3.67392 22.5 5H26.25C27.2446 5 28.1984 5.39509 28.9017 6.09835C29.6049 6.80161 30 7.75544 30 8.75V15H27.5C26.837 15 26.2011 15.2634 25.7322 15.7322C25.2634 16.2011 25 16.837 25 17.5C25 18.163 25.2634 18.7989 25.7322 19.2678C26.2011 19.7366 26.837 20 27.5 20H30V26.25C30 27.2446 29.6049 28.1984 28.9017 28.9017C28.1984 29.6049 27.2446 30 26.25 30H22.5C22.5 31.3261 21.9732 32.5979 21.0355 33.5355C20.0979 34.4732 18.8261 35 17.5 35C16.1739 35 14.9021 34.4732 13.9645 33.5355C13.0268 32.5979 12.5 31.3261 12.5 30H8.75C7.75544 30 6.80161 29.6049 6.09835 28.9017C5.39509 28.1984 5 27.2446 5 26.25V22.5C3.67392 22.5 2.40215 21.9732 1.46447 21.0355C0.526784 20.0979 0 18.8261 0 17.5C0 16.1739 0.526784 14.9021 1.46447 13.9645C2.40215 13.0268 3.67392 12.5 5 12.5V8.75C5 7.75544 5.39509 6.80161 6.09835 6.09835C6.80161 5.39509 7.75544 5 8.75 5H12.5ZM17.5 2.5C16.837 2.5 16.2011 2.76339 15.7322 3.23223C15.2634 3.70107 15 4.33696 15 5V7.5H8.75C8.41848 7.5 8.10054 7.6317 7.86612 7.86612C7.6317 8.10054 7.5 8.41848 7.5 8.75V15H5C4.33696 15 3.70107 15.2634 3.23223 15.7322C2.76339 16.2011 2.5 16.837 2.5 17.5C2.5 18.163 2.76339 18.7989 3.23223 19.2678C3.70107 19.7366 4.33696 20 5 20H7.5V26.25C7.5 26.5815 7.6317 26.8995 7.86612 27.1339C8.10054 27.3683 8.41848 27.5 8.75 27.5H15V30C15 30.663 15.2634 31.2989 15.7322 31.7678C16.2011 32.2366 16.837 32.5 17.5 32.5C18.163 32.5 18.7989 32.2366 19.2678 31.7678C19.7366 31.2989 20 30.663 20 30V27.5H26.25C26.5815 27.5 26.8995 27.3683 27.1339 27.1339C27.3683 26.8995 27.5 26.5815 27.5 26.25V22.5C26.1739 22.5 24.9021 21.9732 23.9645 21.0355C23.0268 20.0979 22.5 18.8261 22.5 17.5C22.5 16.1739 23.0268 14.9021 23.9645 13.9645C24.9021 13.0268 26.1739 12.5 27.5 12.5V8.75C27.5 8.41848 27.3683 8.10054 27.1339 7.86612C26.8995 7.6317 26.5815 7.5 26.25 7.5H20V5C20 4.33696 19.7366 3.70107 19.2678 3.23223C18.7989 2.76339 18.163 2.5 17.5 2.5V2.5Z" fill="#97A3B6"/>
</svg>
