<svg width="37" height="43" viewBox="0 0 37 43" fill="none" xmlns="http://www.w3.org/2000/svg">
<path d="M15.4167 6.14286C15.4167 4.51367 16.0664 2.95121 17.2228 1.7992C18.3793 0.647192 19.9478 0 21.5833 0C23.2188 0 24.7873 0.647192 25.9438 1.7992C27.1003 2.95121 27.75 4.51367 27.75 6.14286H32.375C33.6016 6.14286 34.778 6.62825 35.6454 7.49226C36.5127 8.35626 37 9.52811 37 10.75V18.4286H33.9167C33.0989 18.4286 32.3147 18.7522 31.7364 19.3282C31.1582 19.9042 30.8333 20.6854 30.8333 21.5C30.8333 22.3146 31.1582 23.0958 31.7364 23.6718C32.3147 24.2478 33.0989 24.5714 33.9167 24.5714H37V32.25C37 33.4719 36.5127 34.6437 35.6454 35.5077C34.778 36.3717 33.6016 36.8571 32.375 36.8571H27.75C27.75 38.4863 27.1003 40.0488 25.9438 41.2008C24.7873 42.3528 23.2188 43 21.5833 43C19.9478 43 18.3793 42.3528 17.2228 41.2008C16.0664 40.0488 15.4167 38.4863 15.4167 36.8571H10.7917C9.56504 36.8571 8.38865 36.3717 7.5213 35.5077C6.65394 34.6437 6.16667 33.4719 6.16667 32.25V27.6429C4.53116 27.6429 2.96265 26.9957 1.80617 25.8437C0.6497 24.6916 0 23.1292 0 21.5C0 19.8708 0.6497 18.3084 1.80617 17.1563C2.96265 16.0043 4.53116 15.3571 6.16667 15.3571V10.75C6.16667 9.52811 6.65394 8.35626 7.5213 7.49226C8.38865 6.62825 9.56504 6.14286 10.7917 6.14286H15.4167ZM21.5833 3.07143C20.7656 3.07143 19.9813 3.39502 19.4031 3.97103C18.8249 4.54703 18.5 5.32826 18.5 6.14286V9.21429H10.7917C10.3828 9.21429 9.99066 9.37608 9.70154 9.66409C9.41243 9.95209 9.25 10.3427 9.25 10.75V18.4286H6.16667C5.34892 18.4286 4.56466 18.7522 3.98642 19.3282C3.40818 19.9042 3.08333 20.6854 3.08333 21.5C3.08333 22.3146 3.40818 23.0958 3.98642 23.6718C4.56466 24.2478 5.34892 24.5714 6.16667 24.5714H9.25V32.25C9.25 32.6573 9.41243 33.0479 9.70154 33.3359C9.99066 33.6239 10.3828 33.7857 10.7917 33.7857H18.5V36.8571C18.5 37.6717 18.8249 38.453 19.4031 39.029C19.9813 39.605 20.7656 39.9286 21.5833 39.9286C22.4011 39.9286 23.1853 39.605 23.7636 39.029C24.3418 38.453 24.6667 37.6717 24.6667 36.8571V33.7857H32.375C32.7839 33.7857 33.176 33.6239 33.4651 33.3359C33.7542 33.0479 33.9167 32.6573 33.9167 32.25V27.6429C32.2812 27.6429 30.7126 26.9957 29.5562 25.8437C28.3997 24.6916 27.75 23.1292 27.75 21.5C27.75 19.8708 28.3997 18.3084 29.5562 17.1563C30.7126 16.0043 32.2812 15.3571 33.9167 15.3571V10.75C33.9167 10.3427 33.7542 9.95209 33.4651 9.66409C33.176 9.37608 32.7839 9.21429 32.375 9.21429H24.6667V6.14286C24.6667 5.32826 24.3418 4.54703 23.7636 3.97103C23.1853 3.39502 22.4011 3.07143 21.5833 3.07143V3.07143Z" fill="#08BDD4"/>
</svg>
