<svg width="41" height="28" viewBox="0 0 41 28" fill="none" xmlns="http://www.w3.org/2000/svg">
<path d="M31.9993 17.8182C30.2272 17.8182 28.4949 17.2957 27.0215 16.3167C25.548 15.3378 24.3996 13.9464 23.7215 12.3185C23.0433 10.6905 22.8659 8.89921 23.2116 7.17102C23.5573 5.44282 24.4107 3.85537 25.6637 2.60942C26.9168 1.36346 28.5133 0.514949 30.2513 0.17119C31.9893 -0.17257 33.7908 0.00386016 35.428 0.678168C37.0652 1.35248 38.4645 2.49438 39.449 3.95947C40.4336 5.42456 40.959 7.14704 40.959 8.90909L41 10.1818C41 12.5217 40.5365 14.8387 39.636 17.0005C38.7354 19.1623 37.4155 21.1266 35.7515 22.7812C34.0875 24.4357 32.112 25.7482 29.9379 26.6437C27.7638 27.5391 25.4337 28 23.0804 28V22.9091C24.762 22.9136 26.4279 22.5866 27.9816 21.9469C29.5353 21.3073 30.9461 20.3677 32.1324 19.1825C32.5934 18.725 33.0188 18.2331 33.4047 17.7113C32.9397 17.7839 32.4699 17.8205 31.9993 17.8207V17.8182ZM8.95979 17.8182C7.18771 17.8182 5.45543 17.2957 3.982 16.3167C2.50857 15.3378 1.36017 13.9464 0.682027 12.3185C0.0038822 10.6905 -0.173552 8.89921 0.172164 7.17102C0.517879 5.44282 1.37122 3.85537 2.62427 2.60942C3.87731 1.36346 5.4738 0.514949 7.21183 0.17119C8.94985 -0.17257 10.7514 0.00386016 12.3886 0.678168C14.0257 1.35248 15.4251 2.49438 16.4096 3.95947C17.3941 5.42456 17.9196 7.14704 17.9196 8.90909L17.9605 10.1818C17.9605 14.9075 16.0726 19.4396 12.712 22.7812C9.35144 26.1227 4.79353 28 0.0409631 28V22.9091C1.72258 22.9136 3.38842 22.5866 4.94214 21.9469C6.49586 21.3073 7.90664 20.3677 9.09291 19.1825C9.55397 18.725 9.97929 18.2331 10.3652 17.7113C9.90029 17.7839 9.43041 17.8205 8.95979 17.8207V17.8182Z" fill="#C8CED1"/>
</svg>
