<svg width="16" height="13" viewBox="0 0 16 13" fill="none" xmlns="http://www.w3.org/2000/svg">
<path d="M0 3.9494V10.4C0 11.0896 0.280951 11.7509 0.781048 12.2385C1.28115 12.7261 1.95942 13 2.66667 13H13.3333C14.0406 13 14.7189 12.7261 15.219 12.2385C15.719 11.7509 16 11.0896 16 10.4V2.6C16 1.91044 15.719 1.24912 15.219 0.761522C14.7189 0.273928 14.0406 0 13.3333 0H2.66667C1.95942 0 1.28115 0.273928 0.781048 0.761522C0.280951 1.24912 0 1.91044 0 2.6V3.9494ZM2.66667 1.3H13.3333C13.687 1.3 14.0261 1.43696 14.2761 1.68076C14.5262 1.92456 14.6667 2.25522 14.6667 2.6V3.562L8 7.0616L1.33333 3.562V2.6C1.33333 2.25522 1.47381 1.92456 1.72386 1.68076C1.97391 1.43696 2.31304 1.3 2.66667 1.3ZM1.33333 5.0388L7.684 8.372C7.78112 8.42297 7.8897 8.44966 8 8.44966C8.1103 8.44966 8.21888 8.42297 8.316 8.372L14.6667 5.0388V10.4C14.6667 10.7448 14.5262 11.0754 14.2761 11.3192C14.0261 11.563 13.687 11.7 13.3333 11.7H2.66667C2.31304 11.7 1.97391 11.563 1.72386 11.3192C1.47381 11.0754 1.33333 10.7448 1.33333 10.4V5.0388Z" fill="black" fill-opacity="0.4"/>
</svg>
