<svg width="19" height="19" viewBox="0 0 19 19" fill="none" xmlns="http://www.w3.org/2000/svg">
<path fill-rule="evenodd" clip-rule="evenodd" d="M18.7392 9.23913C18.7392 14.3414 14.6024 18.4783 9.50012 18.4783C4.39781 18.4783 0.260986 14.3414 0.260986 9.23913C0.260986 4.13682 4.39781 0 9.50012 0C14.6024 0 18.7392 4.13682 18.7392 9.23913ZM9.83119 6.82079C8.93268 7.1942 7.13644 7.96798 4.44323 9.14135C4.00591 9.31535 3.77648 9.48551 3.75569 9.65181C3.72027 9.9336 4.0729 10.0445 4.55179 10.1946C4.61724 10.2154 4.68499 10.2362 4.75428 10.2593C5.22625 10.4125 5.86067 10.5919 6.1902 10.5988C6.4897 10.605 6.82385 10.4818 7.19264 10.2293C9.70877 8.53003 11.0076 7.67156 11.0892 7.65308C11.147 7.63999 11.2271 7.62305 11.281 7.67156C11.3349 7.71929 11.3295 7.81014 11.3241 7.83478C11.2887 7.98338 9.90741 9.26839 9.19138 9.9336C8.9681 10.1407 8.81026 10.2878 8.77792 10.3216C8.70555 10.3963 8.63164 10.4679 8.5608 10.5365C8.12195 10.9584 7.79396 11.2756 8.57928 11.793C8.95655 12.0417 9.25836 12.2472 9.5594 12.452C9.88816 12.6761 10.2161 12.8994 10.6411 13.1781C10.7489 13.2489 10.8521 13.3221 10.953 13.3937C11.3356 13.667 11.6798 13.9118 12.1048 13.8733C12.3512 13.8502 12.6068 13.6185 12.7361 12.9263C13.0418 11.2894 13.6439 7.7447 13.7832 6.28338C13.7917 6.16205 13.7865 6.04015 13.7678 5.91997C13.7566 5.82291 13.7094 5.7336 13.6354 5.66975C13.5253 5.57966 13.3544 5.56042 13.2774 5.56196C12.9301 5.56812 12.3974 5.75367 9.83119 6.82079V6.82079Z" fill="black" fill-opacity="0.4"/>
</svg>
