<svg width="19" height="19" viewBox="0 0 19 19" fill="none" xmlns="http://www.w3.org/2000/svg">
<path fill-rule="evenodd" clip-rule="evenodd" d="M18.739 9.23913C18.739 14.3414 14.6022 18.4783 9.49987 18.4783C4.39756 18.4783 0.260742 14.3414 0.260742 9.23913C0.260742 4.13682 4.39756 0 9.49987 0C14.6022 0 18.739 4.13682 18.739 9.23913ZM9.83094 6.82079C8.93244 7.1942 7.13619 7.96798 4.44299 9.14135C4.00567 9.31535 3.77623 9.48551 3.75544 9.65181C3.72003 9.9336 4.07265 10.0445 4.55155 10.1946C4.61699 10.2154 4.68475 10.2362 4.75404 10.2593C5.226 10.4125 5.86043 10.5919 6.18995 10.5988C6.48946 10.605 6.8236 10.4818 7.1924 10.2293C9.70852 8.53003 11.0074 7.67156 11.089 7.65308C11.1467 7.63999 11.2268 7.62305 11.2807 7.67156C11.3346 7.71929 11.3292 7.81014 11.3238 7.83478C11.2884 7.98338 9.90716 9.26839 9.19113 9.9336C8.96785 10.1407 8.81002 10.2878 8.77768 10.3216C8.70531 10.3963 8.63139 10.4679 8.56056 10.5365C8.1217 10.9584 7.79371 11.2756 8.57904 11.793C8.9563 12.0417 9.25811 12.2472 9.55916 12.452C9.88792 12.6761 10.2159 12.8994 10.6409 13.1781C10.7487 13.2489 10.8519 13.3221 10.9527 13.3937C11.3354 13.667 11.6795 13.9118 12.1045 13.8733C12.3509 13.8502 12.6065 13.6185 12.7359 12.9263C13.0415 11.2894 13.6436 7.7447 13.783 6.28338C13.7915 6.16205 13.7863 6.04015 13.7676 5.91997C13.7564 5.82291 13.7091 5.7336 13.6352 5.66975C13.5251 5.57966 13.3541 5.56042 13.2771 5.56196C12.9299 5.56812 12.3971 5.75367 9.83094 6.82079V6.82079Z" fill="white" fill-opacity="0.4"/>
</svg>
