<svg width="19" height="19" viewBox="0 0 19 19" fill="none" xmlns="http://www.w3.org/2000/svg">
<path d="M9.23913 0C4.13699 0 0 4.13699 0 9.23913C0 14.3413 4.13699 18.4783 9.23913 18.4783C14.3413 18.4783 18.4783 14.3413 18.4783 9.23913C18.4783 4.13699 14.3413 0 9.23913 0ZM13.6793 6.96441C13.6855 7.06134 13.6855 7.16239 13.6855 7.26138C13.6855 10.2888 11.3798 13.7762 7.16651 13.7762C5.86726 13.7762 4.66287 13.3988 3.64822 12.7492C3.83383 12.7698 4.01119 12.778 4.20092 12.778C5.27332 12.778 6.2591 12.4151 7.04484 11.8005C6.03843 11.7799 5.19289 11.12 4.90416 10.2125C5.25682 10.2641 5.57441 10.2641 5.93738 10.1713C5.41917 10.066 4.9534 9.78457 4.61919 9.37479C4.28497 8.96502 4.10293 8.45217 4.10399 7.92338V7.89451C4.40715 8.06568 4.76393 8.17086 5.1372 8.18529C4.82341 7.97616 4.56606 7.69283 4.38799 7.36043C4.20992 7.02803 4.11662 6.65682 4.11636 6.27972C4.11636 5.85282 4.22773 5.46305 4.42777 5.12483C5.00295 5.83289 5.72069 6.412 6.53434 6.82451C7.34799 7.23702 8.23934 7.4737 9.15045 7.51917C8.82667 5.96213 9.98981 4.70206 11.3881 4.70206C12.048 4.70206 12.6419 4.97841 13.0606 5.42386C13.5782 5.32694 14.0732 5.13308 14.5145 4.87323C14.3433 5.40324 13.9845 5.85076 13.5081 6.1333C13.9701 6.0838 14.4155 5.95594 14.828 5.77652C14.5166 6.23435 14.1268 6.64062 13.6793 6.96441V6.96441Z" fill="black" fill-opacity="0.4"/>
</svg>
