<svg width="33" height="28" viewBox="0 0 33 28" fill="none" xmlns="http://www.w3.org/2000/svg">
<path d="M31.2488 11H30.1714V5C30.1714 4.73478 30.0579 4.48043 29.8559 4.29289C29.6538 4.10536 29.3798 4 29.0941 4H3.23772C2.98261 4.00386 2.73431 3.92356 2.53702 3.7734C2.33973 3.62324 2.20626 3.41296 2.16037 3.18V2.82C2.20626 2.58704 2.33973 2.37676 2.53702 2.2266C2.73431 2.07644 2.98261 1.99614 3.23772 2H28.6416C28.9273 2 29.2013 1.89464 29.4034 1.70711C29.6054 1.51957 29.7189 1.26522 29.7189 1C29.7189 0.734784 29.6054 0.48043 29.4034 0.292893C29.2013 0.105357 28.9273 0 28.6416 0H3.23772C2.38052 0 1.55844 0.316071 0.952315 0.87868C0.346189 1.44129 0.00567142 2.20435 0.00567142 3C-0.00189047 3.1199 -0.00189047 3.2401 0.00567142 3.36V23.93C0.0099003 24.4684 0.128345 25.0008 0.354242 25.4967C0.58014 25.9927 0.909065 26.4424 1.32224 26.8204C1.73541 27.1983 2.22474 27.497 2.76228 27.6994C3.29982 27.9018 3.87505 28.004 4.45512 28H29.0941C29.3798 28 29.6538 27.8946 29.8559 27.7071C30.0579 27.5196 30.1714 27.2652 30.1714 27V21H31.2488C31.5345 21 31.8085 20.8946 32.0106 20.7071C32.2126 20.5196 32.3261 20.2652 32.3261 20V12C32.3261 11.7348 32.2126 11.4804 32.0106 11.2929C31.8085 11.1054 31.5345 11 31.2488 11ZM28.0167 26H4.45512C3.8559 26.0054 3.27863 25.7909 2.84889 25.4033C2.41915 25.0156 2.1717 24.4861 2.16037 23.93V5.88C2.51007 5.97407 2.87396 6.0146 3.23772 6H28.0167V11H20.4753C19.0466 11 17.6765 11.5268 16.6663 12.4645C15.6561 13.4021 15.0885 14.6739 15.0885 16C15.0885 17.3261 15.6561 18.5979 16.6663 19.5355C17.6765 20.4732 19.0466 21 20.4753 21H28.0167V26ZM30.1714 19H20.4753C19.6181 19 18.796 18.6839 18.1899 18.1213C17.5838 17.5587 17.2432 16.7956 17.2432 16C17.2432 15.2044 17.5838 14.4413 18.1899 13.8787C18.796 13.3161 19.6181 13 20.4753 13H30.1714V19Z" fill="#97A3B6"/>
</svg>
